<?xml version="1.0" encoding="UTF-8" standalone="no"?>
<svg
   aria-hidden="true"
   focusable="false"
   data-prefix="far"
   data-icon="edit"
   class="svg-inline--fa fa-edit fa-w-18"
   role="img"
   viewBox="0 0 576 512"
   version="1.1"
   id="svg10671"
   sodipodi:docname="edit-regular.svg"
   inkscape:version="1.1 (c68e22c387, 2021-05-23)"
   xmlns:inkscape="http://www.inkscape.org/namespaces/inkscape"
   xmlns:sodipodi="http://sodipodi.sourceforge.net/DTD/sodipodi-0.dtd"
   xmlns="http://www.w3.org/2000/svg"
   xmlns:svg="http://www.w3.org/2000/svg">
  <defs
     id="defs10675" />
  <sodipodi:namedview
     id="namedview10673"
     pagecolor="#505050"
     bordercolor="#eeeeee"
     borderopacity="1"
     inkscape:pageshadow="0"
     inkscape:pageopacity="0"
     inkscape:pagecheckerboard="0"
     showgrid="false"
     inkscape:zoom="1"
     inkscape:rotation="-2"
     inkscape:cx="4.6065697"
     inkscape:cy="291.73152"
     inkscape:window-width="1366"
     inkscape:window-height="705"
     inkscape:window-x="-8"
     inkscape:window-y="-8"
     inkscape:window-maximized="1"
     inkscape:current-layer="svg10671" />
  <path
     fill="currentColor"
     d="M402.3 344.9l32-32c5-5 13.7-1.5 13.7 5.7V464c0 26.5-21.5 48-48 48H48c-26.5 0-48-21.5-48-48V112c0-26.5 21.5-48 48-48h273.5c7.1 0 10.7 8.6 5.7 13.7l-32 32c-1.5 1.5-3.5 2.3-5.7 2.3H48v352h352V350.5c0-2.1.8-4.1 2.3-5.6zm156.6-201.8L296.3 405.7l-90.4 10c-26.2 2.9-48.5-19.2-45.6-45.6l10-90.4L432.9 17.1c22.9-22.9 59.9-22.9 82.7 0l43.2 43.2c22.9 22.9 22.9 60 .1 82.8zM460.1 174L402 115.9 216.2 301.8l-7.3 65.3 65.3-7.3L460.1 174zm64.8-79.7l-43.2-43.2c-4.1-4.1-10.8-4.1-14.8 0L436 82l58.1 58.1 30.9-30.9c4-4.2 4-10.8-.1-14.9z"
     id="path10669"
     style="fill:#ffffff" />
  <path
     style="fill:#ffffff;stroke-width:0.984615"
     d="M 36.541367,509.95146 C 20.221542,505.56251 7.740287,493.61979 2.6667702,477.53846 L 0.49230769,470.64615 V 288 105.35385 L 2.6667702,98.461538 C 6.5591821,86.123915 14.525096,76.382304 25.508366,70.528283 37.463207,64.156419 28.677431,64.492308 183.39008,64.492308 h 140.63789 l 2.41678,2.416783 c 4.94179,4.941782 4.1119,6.303156 -16.1037,26.417259 l -18.52049,18.4275 H 169.54105 47.261538 V 288 464.24615 H 224 400.73846 v -58.34844 -58.34844 l 18.14323,-18.12335 c 15.79798,-15.78067 18.54146,-18.12335 21.22394,-18.12335 1.85917,0 3.93743,0.85689 5.24138,2.16109 l 2.16068,2.16109 v 77.51071 c 0,77.21225 -0.009,77.53723 -2.17446,84.403 -3.83752,12.16362 -12.00461,22.15721 -22.81752,27.92042 -12.1061,6.45249 1.09845,6.05536 -198.96873,5.98401 -155.423123,-0.0554 -182.468008,-0.27112 -187.005613,-1.49143 z"
     id="path10751" />
  <path
     style="fill:#ffffff"
     d="m 189.32779,413.58695 c -9.84475,-3.07672 -20.38737,-12.34739 -24.87659,-21.87527 -4.74264,-10.06572 -4.71055,-12.2912 0.92026,-63.83476 l 5.16304,-47.26154 133.903,-134.00237 C 396.71343,54.268607 439.99759,11.606339 443.67088,9.3800911 c 17.5305,-10.6245903 37.69726,-11.6283069 56.25167,-2.7996918 5.88635,2.8008585 9.91506,6.3856727 34.59937,30.7870907 16.34103,16.153746 29.52585,30.037258 31.76438,33.447613 9.04449,13.779122 11.42978,33.597617 5.94123,49.363487 -1.51881,4.36284 -4.37494,10.34438 -6.34692,13.29231 -2.04099,3.05107 -60.99271,62.74937 -136.85665,138.58983 l -133.27121,133.22995 -43.7533,4.85756 c -45.52454,5.0542 -55.71361,5.61327 -62.67166,3.43871 z m 56.64149,-50.15421 28.8616,-3.19059 92.98451,-92.98062 92.98453,-92.98062 -29.53911,-29.53911 -29.53912,-29.53911 -92.99946,93.0448 -92.99947,93.04482 -3.49215,31.374 c -1.92068,17.2557 -3.49215,32.20108 -3.49215,33.21193 0,1.59157 0.56091,1.76469 4.18462,1.29151 2.30154,-0.30052 17.17233,-1.98218 33.0462,-3.73701 z M 511.19025,123.81538 c 17.63741,-17.79597 18.89989,-19.81719 16.23376,-25.990306 -0.81185,-1.879773 -11.56445,-13.37413 -24.96443,-26.686612 -22.367,-22.220937 -23.72295,-23.384616 -27.2483,-23.384616 -2.04048,0 -4.67777,0.49053 -5.86062,1.090066 -1.18286,0.599535 -9.35181,8.238731 -18.15323,16.97599 l -16.00257,15.885924 29.28872,29.300934 c 16.1088,16.11551 29.53006,29.30093 29.82502,29.30093 0.29496,0 7.89171,-7.42154 16.88165,-16.49231 z"
     id="path10790" />
  <path
     style="fill:#ffffff;stroke-width:0.0870285"
     d="m 569.28776,127.3493 c 2.19392,-4.81725 3.06383,-7.08227 3.93206,-10.23801 1.25931,-4.57716 1.83124,-8.70847 1.92366,-13.89546 0.11575,-6.495606 -0.66717,-12.386221 -2.45261,-18.453157 -1.46394,-4.974491 -3.84078,-10.2067 -6.30435,-13.877938 -1.30901,-1.950708 -5.29756,-6.433435 -11.73134,-13.184822 l -1.74162,-1.827599 0.66381,-0.02609 0.6638,-0.02609 3.22314,3.246146 c 4.46385,4.49573 6.24232,6.610338 8.80526,10.469513 4.87477,7.340229 8.0615,15.94506 9.20175,24.846645 0.33581,2.621502 0.42803,4.215835 0.42789,7.397422 -1.7e-4,3.30829 -0.10672,5.04794 -0.47455,7.74554 -0.81289,5.96169 -2.449,11.5815 -4.92804,16.92705 l -0.6054,1.30543 -0.40687,0.0266 -0.40687,0.0266 z"
     id="path10829" />
  <path
     style="fill:#ffffff;stroke-width:0.0870285"
     d="m 502.93428,72.230095 c -9.2348,-9.23489 -16.3356,-16.401295 -16.25117,-16.401295 0.0825,0 1.53146,1.340826 3.21997,2.979612 4.13161,4.009951 21.41691,21.291151 24.18124,24.17551 4.47579,4.670129 5.32635,5.572195 5.28912,5.609427 -0.0209,0.02092 -7.41855,-7.342542 -16.43916,-16.363254 z"
     id="path10868" />
  <path
     style="fill:#ffffff;stroke-width:0.0615385"
     d="M 552.67859,55.680447 C 552.04624,54.876545 538.77918,41.497289 531.79018,34.615385 l -4.34348,-4.276923 0.659,-0.0176 0.65899,-0.0176 12.72604,12.725293 12.72605,12.725291 -0.35454,0.03947 c -0.195,0.02171 -0.51177,0.04248 -0.70393,0.04615 -0.31004,0.0059 -0.36405,-0.01198 -0.47972,-0.159028 z"
     id="path10907" />
  <path
     style="fill:#ffffff;stroke-width:0.0435143"
     d=""
     id="path10946" />
  <path
     style="fill:#ffffff;stroke-width:0.0435143"
     d="m 314.30353,136.22136 v -0.50042 l 14.85077,-14.85073 14.85078,-14.85073 0.48817,0.0124 0.48817,0.0124 -15.33895,15.33876 -15.33894,15.33875 z"
     id="path10985" />
  <path
     style="fill:#ffffff;stroke-width:0.0307692"
     d="m 240.76346,276.26923 c 4.57027,-4.58192 10.2874,-10.30769 12.70473,-12.72394 l 4.39515,-4.39317 0.46064,0.009 0.46064,0.009 -12.70496,12.71539 L 233.37471,284.6 h -0.46042 -0.46041 z"
     id="path11024" />
  <path
     style="fill:#ffffff;stroke-width:0.00390625"
     d="m 177.09527,408.07317 c -1.31008,-0.95407 -2.55475,-1.97533 -3.73785,-3.06692 -0.043,-0.0396 -0.0798,-0.0735 -0.0818,-0.0753 -0.002,-0.002 0.3218,-0.003 0.71965,-0.003 h 0.72337 l 0.085,0.0753 c 0.14567,0.12901 0.36429,0.31924 0.54011,0.46996 1.00272,0.85955 2.02428,1.66746 3.07031,2.42817 l 0.0879,0.0639 0.001,0.0965 0.001,0.0966 h -0.646 -0.64601 z"
     id="path11063" />
  <path
     style="fill:#ffffff;stroke-width:0.0220971"
     d="m 172.65515,404.32407 c -1.21434,-1.16665 -2.47159,-2.54537 -3.55892,-3.90276 -0.48805,-0.60926 -1.21658,-1.57762 -1.50866,-2.00531 l -0.0717,-0.10496 0.50377,9.4e-4 0.50377,9.3e-4 0.14363,0.19133 c 0.5093,0.67842 1.63904,2.01736 2.41876,2.86664 0.91108,0.99237 2.17858,2.25382 3.14735,3.1323 0.20183,0.18302 0.38657,0.35125 0.41054,0.37383 0.0425,0.0401 0.0265,0.0411 -0.66335,0.0411 h -0.70694 z"
     id="path11102" />
  <path
     style="fill:#ffffff;stroke-width:0.0220971"
     d="m 190.81939,414.59416 c -3.8696,-1.04404 -7.29636,-2.49223 -10.65079,-4.50115 -0.81422,-0.48762 -1.9528,-1.23061 -2.64842,-1.72824 l -0.26193,-0.18738 0.63206,-0.006 0.63205,-0.006 v -0.0882 -0.0882 l 0.16021,0.11786 c 0.0881,0.0648 0.36902,0.26254 0.62424,0.43937 3.82999,2.65357 7.95465,4.61234 11.48496,5.45414 l 0.30384,0.0724 v 0.29491 c 0,0.1622 -0.007,0.2942 -0.0166,0.29333 -0.009,-8.6e-4 -0.12595,-0.0311 -0.25964,-0.0672 z"
     id="path11141" />
  <path
     style="fill:#ffffff;stroke-width:0.125"
     d="m 166.72376,397.01801 c -4.49751,-6.93167 -6.77814,-14.99622 -6.57051,-23.23402 0.0804,-3.19197 2.53822,-25.72149 2.80599,-25.72149 0.0912,0 0.16576,0.0232 0.16576,0.0516 0,0.0284 -0.19609,1.98306 -0.43576,4.34375 -1.36634,13.45826 -1.75021,19.24056 -1.65318,24.90234 0.0704,4.10929 0.21713,5.47823 0.85032,7.93398 0.95996,3.72311 3.49867,8.84306 6.31565,12.73711 0.19989,0.27631 0.19606,0.28123 -0.21803,0.28035 -0.39714,-8.8e-4 -0.46998,-0.0756 -1.26024,-1.29359 z"
     id="path11180" />
  <path
     style="fill:#ffffff;stroke-width:0.125"
     d="m 198.5963,415.80207 c -1.91516,-0.12964 -3.90421,-0.40724 -5.87755,-0.8203 -1.3906,-0.29108 -1.59375,-0.36504 -1.59375,-0.58029 0,-0.21617 0.058,-0.23664 0.46875,-0.16549 2.85201,0.49403 3.04309,0.50548 8.40625,0.50349 5.70104,-0.002 8.40273,-0.14807 17.3125,-0.93532 6.51675,-0.57581 25.24777,-2.49396 27.53125,-2.81935 0.43678,-0.0622 0.53125,-0.0398 0.53125,0.126 0,0.11093 -0.0854,0.20169 -0.1898,0.20169 -0.1044,0 -9.09033,0.9858 -19.96875,2.19066 -10.87842,1.20487 -20.59458,2.24433 -21.59145,2.30993 -2.03684,0.13402 -2.91449,0.1321 -5.0287,-0.011 z"
     id="path11219" />
  <path
     style="fill:#ffffff;stroke-width:0.0883883"
     d="m 165.86437,320.1205 c 0.0239,-0.13369 1.03934,-9.27194 2.2566,-20.30723 l 2.21319,-20.06415 16.23636,-16.24136 16.23636,-16.24136 h 0.48614 0.48614 l -16.64098,16.64116 -16.64098,16.64115 -2.16355,19.79568 c -1.18996,10.88763 -2.16356,19.84597 -2.16356,19.90743 0,0.0615 -0.0785,0.11175 -0.17456,0.11175 -0.14204,0 -0.16648,-0.0453 -0.13116,-0.24307 z"
     id="path11258" />
  <path
     style="fill:#ffffff;stroke-width:0.0883883"
     d="m 170.36926,282.46706 c 0.0223,-0.13369 0.0806,-0.60015 0.12963,-1.0366 l 0.0891,-0.79352 35.46656,-35.48989 35.46657,-35.48989 5.45798,-0.0228 5.45798,-0.0228 v 27.42331 27.42332 l -9.12626,9.12593 -9.12625,9.12594 h -31.92792 -31.92793 z"
     id="path11297" />
  <path
     style="fill:#ffffff;stroke-width:0.0883883"
     d="m 221.63378,228.43968 18.82656,-18.82671 h 0.48614 0.48614 l -18.82657,18.82671 -18.82656,18.82672 h -0.48614 -0.48613 z"
     id="path11336" />
  <path
     style="fill:#ffffff;stroke-width:0.0441942"
     d="m 215.18255,306.38716 c 6.2e-4,-0.0425 0.12576,-1.19352 0.2781,-2.55773 l 0.27697,-2.48038 8.32872,-8.35821 8.32872,-8.35821 0.464,-3e-5 0.46399,-2e-5 -8.56991,8.57 -8.56992,8.57 -0.25672,2.26862 c -0.14119,1.24774 -0.25721,2.30342 -0.25782,2.34596 -9.2e-4,0.0641 -0.0426,0.0773 -0.24418,0.0773 -0.20246,0 -0.24288,-0.0129 -0.24195,-0.0773 z"
     id="path11375" />
  <path
     style="fill:#ffffff;stroke-width:0.03125"
     d="m 213.34375,322.83037 c 0,-0.016 0.40781,-3.68873 0.90625,-8.16173 0.49844,-4.47299 0.90625,-8.15887 0.90625,-8.19084 0,-0.0497 0.01,-0.0529 0.0669,-0.0223 0.0381,0.0204 0.14559,0.0301 0.25,0.0225 0.11046,-0.008 0.18313,-8.1e-4 0.18313,0.0181 0,0.0172 -0.40781,3.67862 -0.90625,8.13641 -0.49844,4.45778 -0.90625,8.13246 -0.90625,8.16595 0,0.0553 -0.023,0.0609 -0.25,0.0609 -0.1375,0 -0.25,-0.0131 -0.25,-0.029 z"
     id="path11414" />
  <path
     style="fill:#ffffff;stroke-width:0.03125"
     d="m 164.85299,329.03906 c 0.009,-0.0387 0.23125,-2.02556 0.49432,-4.41531 0.45961,-4.17505 0.4805,-4.34281 0.53425,-4.28906 0.0675,0.0675 0.10743,0.0694 0.22008,0.0107 l 0.086,-0.0449 -0.0167,0.11537 c -0.009,0.0635 -0.21968,1.98569 -0.46773,4.27163 -0.24805,2.28594 -0.4594,4.21602 -0.46965,4.28906 l -0.0186,0.13281 h -0.18897 c -0.17989,0 -0.18821,-0.003 -0.17296,-0.0703 z"
     id="path11453" />
  <path
     style="fill:#ffffff;stroke-width:0.03125"
     d="m 163.78125,338.81175 c 0,-0.0262 0.23906,-2.20761 0.53125,-4.84759 0.29219,-2.63997 0.53125,-4.81229 0.53125,-4.82737 0,-0.0151 0.086,-0.0274 0.19105,-0.0274 h 0.19105 l -0.0184,0.13282 c -0.0101,0.073 -0.24388,2.22109 -0.51949,4.77343 -0.27561,2.55235 -0.50863,4.68633 -0.51782,4.74219 -0.0167,0.10134 -0.0171,0.10156 -0.20281,0.10156 -0.14587,0 -0.18608,-0.0103 -0.18608,-0.0476 z"
     id="path11492" />
  <path
     style="fill:#ffffff;stroke-width:0.00552427"
     d="m 163.17594,344.13417 c 0,-0.005 0.11311,-1.03099 0.25135,-2.28055 0.13825,-1.24956 0.25136,-2.27361 0.25136,-2.27567 0,-0.002 0.0947,-0.004 0.2104,-0.004 h 0.21041 l -0.003,0.0207 c -0.002,0.0114 -0.038,0.34513 -0.0805,0.74163 -0.11913,1.11168 -0.31505,2.94601 -0.36302,3.39881 l -0.0432,0.40741 h -0.21682 c -0.19281,0 -0.21683,-9.5e-4 -0.21683,-0.009 z"
     id="path11531" />
  <path
     style="fill:#ffffff;stroke-width:0.03125"
     d="m 163.70098,339.48437 c 0.008,-0.043 0.0239,-0.17656 0.0346,-0.29687 0.0301,-0.33885 0.0223,-0.32813 0.23889,-0.32813 h 0.18899 l -0.0192,0.17188 c -0.0106,0.0945 -0.0277,0.24808 -0.0381,0.34123 l -0.0189,0.16935 -0.20068,0.0103 c -0.19933,0.0103 -0.20057,0.01 -0.18552,-0.0678 z"
     id="path11570" />
  <path
     style="fill:#ffffff;stroke-width:0.03125"
     d="m 162.27146,352.42969 c 0.006,-0.0473 0.20705,-1.87188 0.44712,-4.05469 0.24006,-2.18281 0.44443,-4.02712 0.45415,-4.09847 l 0.0177,-0.12972 0.19386,0.0168 c 0.10663,0.009 0.19669,0.0188 0.20014,0.0214 0.003,0.003 -0.11182,1.12917 -0.25615,2.50358 -0.14433,1.37442 -0.27249,2.61144 -0.28482,2.74894 -0.0123,0.1375 -0.0288,0.2309 -0.0367,0.20756 -0.008,-0.0233 0.0178,-0.36949 0.057,-0.76921 0.0392,-0.39972 0.062,-0.7507 0.0508,-0.77996 -0.0139,-0.0362 -0.0479,-0.05 -0.10653,-0.0433 -0.0819,0.009 -0.0888,0.0236 -0.14167,0.28829 -0.0781,0.39125 -0.27325,1.77487 -0.43349,3.07302 -0.0748,0.60577 -0.14407,1.10147 -0.15398,1.10156 -0.01,10e-5 -0.0132,-0.0385 -0.007,-0.0858 z"
     id="path11609" />
  <path
     style="fill:#ffffff;stroke-width:0.0441942"
     d="m 328.27432,372.82205 18.27425,-18.27429 h 0.44194 0.44195 l -18.27425,18.27429 -18.27425,18.27429 h -0.44195 -0.44194 z"
     id="path11648" />
  <path
     style="fill:#ffffff;stroke-width:0.0220971"
     d="m 351.46522,349.60906 4.92761,-4.92765 h 0.45299 0.45299 l -4.92761,4.92765 -4.92762,4.92765 h -0.45299 -0.45299 z"
     id="path11687" />
  <path
     style="fill:#ffffff;stroke-width:0.03125"
     d="m 364.79687,336.29687 8.37496,-8.375 h 0.4375 0.4375 l -8.37496,8.375 -8.37495,8.375 h -0.4375 -0.4375 z"
     id="path11726" />
  <path
     style="fill:#ffffff;stroke-width:0.00390625"
     d="m 365.10156,336.87109 c 1.43316,-1.43316 1.61655,-1.61523 1.62695,-1.61523 0.0104,0 -0.16514,0.17686 -1.60351,1.61523 -1.43316,1.43316 -1.61655,1.61524 -1.62695,1.61524 -0.0104,0 0.16515,-0.17687 1.60351,-1.61524 z"
     id="path11765" />
  <path
     style="fill:#ffffff;stroke-width:0.00390625"
     d="m 361.82422,336.87109 v -1.61523 h 1.99121 1.99121 l -1.61523,1.61523 -1.61523,1.61524 h -0.37598 -0.37598 z"
     id="path11804" />
  <path
     style="fill:#ffffff;stroke-width:0.00390625"
     d="m 364.19715,336.87088 c 1.30064,-1.299 1.619,-1.61502 1.62695,-1.61502 0.008,0 -0.30043,0.31031 -1.60535,1.61523 -1.44628,1.44629 -1.61646,1.61522 -1.62695,1.61502 -0.0105,-1.9e-4 0.15282,-0.16455 1.60535,-1.61523 z"
     id="path11843" />
  <path
     style="fill:#ffffff;stroke-width:0.015625"
     d="m 373.61325,327.91406 -0.44144,-0.008 3.33232,-3.33228 3.33233,-3.33227 0.44898,0.004 0.44898,0.004 -3.33986,3.33594 -3.33987,3.33593 z"
     id="path11882" />
  <path
     style="fill:#ffffff;stroke-width:0.00552427"
     d="m 385.04726,316.16283 v -0.13763 l 2.15008,-2.14665 2.15007,-2.14666 h 0.45876 0.45876 l -2.28428,2.28429 -2.28428,2.28428 h -0.32455 -0.32456 z"
     id="path11921" />
  <path
     style="fill:#ffffff;stroke-width:0.03125"
     d="m 382.43757,318.65584 2.57805,-2.57854 0.01,0.12541 0.01,0.12541 h 0.30282 0.30282 l -2.45298,2.45313 -2.45298,2.45312 h -0.4375 -0.4375 z"
     id="path11960" />
  <path
     style="fill:#ffffff;stroke-width:0.03125"
     d="m 392.8125,308.28125 3.42177,-3.42188 h 0.4375 0.4375 l -3.42177,3.42188 -3.42177,3.42187 h -0.4375 -0.4375 z"
     id="path11999" />
  <path
     style="fill:#ffffff;stroke-width:0.03125"
     d="m 392.84375,308.28125 3.42177,-3.42188 h 0.40625 0.40625 l -3.42177,3.42188 -3.42177,3.42187 h -0.40625 -0.40625 z"
     id="path12038" />
  <path
     style="fill:#ffffff;stroke-width:0.0110485"
     d="m 400.59809,300.94021 v -0.45299 l 3.77597,-3.77596 3.77597,-3.77596 0.45011,0.003 0.4501,0.003 -4.22607,4.22606 -4.22608,4.22607 z"
     id="path12077" />
  <path
     style="fill:#ffffff;stroke-width:0.0110485"
     d="m 400.59809,300.94021 v -0.44194 l 3.78136,-3.77907 3.78137,-3.77907 0.43368,0.006 0.43369,0.006 -4.21505,4.21501 -4.21505,4.21502 z"
     id="path12116" />
  <path
     style="fill:#ffffff;stroke-width:0.0110485"
     d="m 400.59809,300.94021 v -0.44194 l 3.78136,-3.77907 3.78137,-3.77907 0.43368,0.006 0.43369,0.006 -4.21505,4.21501 -4.21505,4.21502 z"
     id="path12155" />
  <path
     style="fill:#ffffff;stroke-width:0.0110485"
     d="m 400.59809,300.94021 v -0.44194 l 3.78136,-3.77907 3.78137,-3.77907 0.43368,0.006 0.43369,0.006 -4.21505,4.21501 -4.21505,4.21502 z"
     id="path12194" />
  <path
     style="fill:#ffffff;stroke-width:0.0110485"
     d="m 400.59809,300.94021 v -0.44194 l 3.78136,-3.77907 3.78137,-3.77907 0.43368,0.006 0.43369,0.006 -4.21505,4.21501 -4.21505,4.21502 z"
     id="path12233" />
  <path
     style="fill:#ffffff;stroke-width:0.03125"
     d="m 398.40633,302.68734 2.17179,-2.17204 0.009,0.42882 0.009,0.42882 -1.74301,1.74322 -1.74301,1.74321 h -0.43752 -0.43752 z"
     id="path12272" />
  <path
     style="fill:#ffffff;stroke-width:0.0078125"
     d="m 408.59382,292.93555 -0.44133,-0.002 1.78508,-1.78509 1.78507,-1.78509 h 0.45313 0.45312 l -1.78905,1.78906 c -0.98397,0.98399 -1.79256,1.78822 -1.79687,1.78718 -0.004,-0.001 -0.20641,-0.003 -0.44915,-0.004 z"
     id="path12311" />
  <path
     style="fill:#ffffff;stroke-width:0.00552427"
     d="m 412.18109,289.35859 -0.45162,-0.003 0.59806,-0.59804 0.59805,-0.59803 0.45434,0.001 0.45434,10e-4 -0.60077,0.59938 -0.60078,0.59938 z"
     id="path12350" />
  <path
     style="fill:#ffffff;stroke-width:0.03125"
     d="m 421.35961,279.75781 8.39987,-8.38281 0.42495,-0.008 0.42494,-0.008 -8.3906,8.39125 -8.3906,8.39125 h -0.43422 -0.43421 z"
     id="path12389" />
  <path
     style="fill:#ffffff;stroke-width:0.0441942"
     d="m 438.28796,262.84485 8.48865,-8.50738 0.44414,-0.0122 0.44413,-0.0122 -8.50738,8.5054 -8.50737,8.50539 -0.42541,0.0141 -0.4254,0.0142 z"
     id="path12428" />
  <path
     style="fill:#ffffff;stroke-width:0.0110485"
     d="m 449.19685,251.88469 4.5611,-4.56857 h 0.45861 0.45861 l -3.50098,3.501 c -2.63068,2.63069 -3.50599,3.49969 -3.5211,3.49574 -0.0111,-0.003 -0.21305,4.5e-4 -0.44886,0.007 l -0.42875,0.0127 -1.06069,1.06014 c -0.58337,0.58308 -1.06481,1.06015 -1.06986,1.06015 -0.005,0 2.04331,-2.05586 4.55192,-4.56858 z"
     id="path12467" />
  <path
     style="fill:#ffffff;stroke-width:0.00390625"
     d="m 454.21582,247.31445 -0.46192,-0.002 0.67678,-0.67677 0.67678,-0.67678 0.46385,9.9e-4 0.46386,0.001 -0.67872,0.67773 -0.67872,0.67774 z"
     id="path12506" />
  <path
     style="fill:#ffffff;stroke-width:0.00390625"
     d="m 455.24415,245.82129 c 0.0752,-0.0757 0.53308,-0.53452 1.01756,-1.01953 l 0.88086,-0.88184 h 0.4668 0.4668 l -1.01953,1.01953 -1.01953,1.01953 h -0.46482 -0.46483 z"
     id="path12545" />
  <path
     style="fill:#ffffff;stroke-width:0.00390625"
     d="m 457.14453,243.91706 c 0,-0.002 0.31244,-0.31534 0.6943,-0.69726 l 0.6943,-0.69441 h 0.46878 0.46878 l -0.69725,0.69727 -0.69726,0.69726 h -0.46582 c -0.25621,0 -0.46583,-10e-4 -0.46583,-0.003 z"
     id="path12584" />
  <path
     style="fill:#ffffff;stroke-width:0.00390625"
     d="m 458.64259,242.41504 c 0.0601,-0.0607 0.40729,-0.40874 0.77146,-0.77344 l 0.66211,-0.66308 h 0.47071 0.4707 l -0.77343,0.77343 -0.77343,0.77344 h -0.46873 -0.46872 z"
     id="path12623" />
  <path
     style="fill:#ffffff;stroke-width:0.0441942"
     d="m 464.30585,236.77029 4.1654,-4.19845 h 0.4685 0.46849 l -4.19827,4.19845 -4.19827,4.19844 h -0.43563 -0.43563 z"
     id="path12662" />
  <path
     style="fill:#ffffff;stroke-width:0.00390625"
     d="m 460.18759,240.86632 c 0.0612,-0.0617 0.47129,-0.47312 0.91135,-0.91425 l 0.80011,-0.80207 0.0202,0.001 0.0202,10e-4 -0.89838,0.90543 c -0.49412,0.49798 -0.89898,0.90711 -0.89969,0.90918 -8.3e-4,0.002 0.15764,0.004 0.43555,0.004 h 0.43685 l 0.91015,-0.91015 c 0.50058,-0.50059 0.91278,-0.91016 0.91601,-0.91016 0.003,0 -0.40547,0.41133 -0.9082,0.91406 l -0.91406,0.91407 h -0.47061 -0.47062 z"
     id="path12701" />
  <path
     style="fill:#ffffff;stroke-width:0.00390625"
     d="m 458.78713,242.27441 c 0.11228,-0.11335 1.19071,-1.19456 2.38767,-2.39382 l 0.7274,-0.72879 0.0151,0.002 0.0151,0.002 -0.52381,0.5276 c -0.95596,0.96288 -1.26821,1.27938 -1.26589,1.28313 0.001,0.002 0.16738,0.004 0.44054,0.004 h 0.43825 l -0.70507,0.70508 -0.70507,0.70508 h -0.46482 -0.46483 z"
     id="path12740" />
  <path
     style="fill:#ffffff;stroke-width:0.00390625"
     d="m 458.75393,242.30762 c 0.0771,-0.0782 1.16322,-1.1671 2.39593,-2.40208 l 0.75323,-0.75461 0.0146,0.003 0.0146,0.003 -0.53323,0.53711 c -1.02913,1.03662 -1.25932,1.2705 -1.25386,1.27396 0.003,0.002 0.20113,0.003 0.44068,0.003 l 0.43555,6e-5 -0.70507,0.70508 -0.70507,0.70508 h -0.46481 -0.46481 z"
     id="path12779" />
  <path
     style="fill:#ffffff;stroke-width:0.00390625"
     d="m 458.74808,242.31348 c 0.0735,-0.0747 1.19265,-1.19669 2.38225,-2.38841 l 0.77277,-0.77414 0.0147,0.003 0.0147,0.003 -0.5041,0.50781 c -0.79473,0.80057 -1.26843,1.28025 -1.27685,1.29297 -0.004,0.006 0.0746,-0.0714 0.17522,-0.17292 0.10064,-0.10155 0.50641,-0.51064 0.90173,-0.90909 l 0.71875,-0.72445 0.43945,-9e-5 0.43945,-9e-5 -0.90818,0.90819 -0.90818,0.90818 -0.42971,10e-4 -0.42971,0.001 0.43554,9.6e-4 0.43555,9.6e-4 -0.70507,0.70508 -0.70507,0.70508 h -0.46481 -0.4648 z"
     id="path12818" />
  <path
     style="fill:#ffffff;stroke-width:0.00390625"
     d=""
     id="path12857" />
  <path
     style="fill:#ffffff;stroke-width:0.00390625"
     d="m 456.97266,240.76562 v -1.61523 h 2.45947 2.45947 l -1.28662,1.28931 c -0.70764,0.70912 -1.43223,1.43597 -1.61019,1.61523 l -0.32357,0.32593 h -0.84928 -0.84928 z"
     id="path12896" />
  <path
     style="fill:#ffffff;stroke-width:0.00390625"
     d="m 456.97266,240.76562 v -1.61523 h 2.45947 2.45947 l -1.2695,1.27246 c -0.69822,0.69986 -1.42284,1.42671 -1.61027,1.61524 l -0.34077,0.34277 h -0.8492 -0.8492 z"
     id="path12935" />
  <path
     style="fill:#ffffff;stroke-width:0.00390625"
     d="m 461.90476,239.14723 c -0.001,-0.002 0.22262,-0.22774 0.4971,-0.50222 l 0.49906,-0.49904 0.0173,0.001 0.0173,10e-4 -0.49748,0.50097 -0.49748,0.50098 h -0.0169 c -0.009,0 -0.0178,-0.001 -0.0189,-0.003 z"
     id="path12974" />
  <path
     style="fill:#ffffff;stroke-width:0.00390625"
     d="m 462.90845,238.14298 c -0.001,-0.002 0.21975,-0.22622 0.49098,-0.49843 l 0.49315,-0.49492 0.0156,0.001 0.0156,0.001 -0.49359,0.49707 c -0.45867,0.4619 -0.49452,0.49707 -0.50661,0.49707 -0.007,0 -0.014,-0.002 -0.0152,-0.004 z"
     id="path13013" />
  <path
     style="fill:#ffffff;stroke-width:0.0110485"
     d="m 468.93904,232.56896 -0.4749,-0.003 1.26511,-1.2677 c 0.69581,-0.69723 1.92576,-1.93024 2.73323,-2.74003 l 1.46813,-1.47233 0.48448,0.003 0.48448,0.003 -2.74282,2.74004 -2.74281,2.74004 z"
     id="path13052" />
  <path
     style="fill:#ffffff;stroke-width:0.0441942"
     d="m 474.34608,227.05065 -0.32144,-0.0252 3.87171,-3.90014 3.87172,-3.90013 h 0.4934 0.4934 l -3.93309,3.93328 c -3.26356,3.26371 -3.95192,3.93193 -4.04368,3.92532 -0.0608,-0.004 -0.25523,-0.0193 -0.43202,-0.0332 z"
     id="path13091" />
  <path
     style="fill:#ffffff;stroke-width:0.0883883"
     d=""
     id="path13130" />
  <path
     style="fill:#ffffff;stroke-width:0.0883883"
     d="m 494.37167,206.58567 c 6.8732,-6.91529 16.35241,-16.47117 21.06491,-21.23531 4.7125,-4.76413 9.64239,-9.74592 10.9553,-11.07064 l 2.38712,-2.40858 h 0.6208 0.6208 l -23.64376,23.64388 -23.64376,23.64389 h -0.42907 -0.42907 z"
     id="path13169" />
  <path
     style="fill:#ffffff;stroke-width:0.0441942"
     d="m 534.68731,165.82759 c 19.06564,-19.39276 28.5682,-29.21306 30.83759,-31.86868 0.47313,-0.55367 1.38318,-2.0361 2.2367,-3.64351 l 0.28631,-0.53921 h 0.38765 c 0.21321,0 0.38765,0.0132 0.38765,0.0293 0,0.12838 -1.57213,2.75071 -2.42,4.03659 -1.87063,2.83697 -3.74758,5.22786 -6.10589,7.77777 -0.32616,0.35267 -6.00371,6.05555 -12.61677,12.67308 l -12.02374,12.03186 h -0.72915 -0.72914 z"
     id="path13208" />
  <path
     style="fill:#ffffff;stroke-width:0.0220971"
     d="m 527.82763,174.08633 c 1.2062,-1.20624 2.1931,-2.20061 2.1931,-2.20971 0,-0.009 -0.28168,-0.0165 -0.62596,-0.0165 h -0.62595 l -1.64186,1.65811 c -0.90302,0.91195 -1.64675,1.65321 -1.65273,1.64723 -0.006,-0.006 1.08696,-1.12253 2.42874,-2.48122 1.34179,-1.35869 3.30171,-3.34539 4.35538,-4.41489 l 1.91578,-1.94455 0.73454,0.006 0.73454,0.006 -4.97122,4.97125 c -2.73416,2.73419 -4.98611,4.97125 -5.00433,4.97125 -0.0182,0 0.95377,-0.98693 2.15997,-2.19318 z"
     id="path13247" />
  <path
     style="fill:#ffffff;stroke-width:0.0220971"
     d="m 568.81817,129.80519 c -0.007,-0.022 -0.10067,-0.0308 -0.389,-0.0364 -0.20865,-0.004 -0.37936,-0.0109 -0.37936,-0.0151 0,-0.004 0.18274,-0.36885 0.40608,-0.81021 0.22335,-0.44136 0.51916,-1.03866 0.65737,-1.32733 0.13821,-0.28867 0.25394,-0.51692 0.25717,-0.50722 0.003,0.01 -0.0641,0.17027 -0.1496,0.35682 -0.0855,0.18656 -0.15117,0.3435 -0.14592,0.34875 0.005,0.005 0.154,-10e-4 0.33054,-0.0143 0.17653,-0.0131 0.36222,-0.0238 0.41263,-0.0238 h 0.0917 l -0.31988,0.62425 c -0.28012,0.54666 -0.7355,1.40698 -0.75515,1.42664 -0.004,0.004 -0.0112,-0.006 -0.0165,-0.0221 z"
     id="path13286" />
  <path
     style="fill:#ffffff;stroke-width:0.0110485"
     d="m 447.52125,69.971335 v -0.490751 l 2.16275,-2.147218 c 2.12777,-2.112479 3.42385,-3.394905 4.25011,-4.205323 l 0.41901,-0.410986 h 0.45934 0.45933 l -3.8725,3.872514 c -2.12988,2.129883 -3.87375,3.872515 -3.87527,3.872515 -0.002,0 -0.003,-0.220838 -0.003,-0.490751 z"
     id="path13325" />
  <path
     style="fill:#ffffff;stroke-width:0.03125"
     d="M 438.67932,85.158837 C 436.79319,83.261042 435.25,81.701948 435.25,81.694183 c 0,-0.0078 2.75273,-2.747401 6.11719,-6.088082 l 6.11718,-6.073967 0.009,0.467401 0.009,0.467402 -5.75088,5.750938 C 438.58789,79.380891 436,81.982836 436,81.999976 c 0,0.01714 1.48005,1.511266 3.28901,3.320281 l 3.289,3.289118 h -0.23468 -0.23469 z"
     id="path13364" />
  <path
     style="fill:#ffffff;stroke-width:0.03125"
     d="m 454.40625,62.691612 c 0,-0.03805 5.20532,-5.06341 6.95552,-6.71505 l 0.19041,-0.179687 h 0.3098 0.30979 l -3.45302,3.453125 -3.45302,3.453125 h -0.42974 c -0.23636,0 -0.42974,-0.0052 -0.42974,-0.01151 z"
     id="path13403" />
  <path
     style="fill:#ffffff;stroke-width:0.125"
     d="m 527.23858,30.111241 c -0.0919,-0.110692 -2.19407,-2.178262 -4.67156,-4.5946 C 508.5672,11.862372 504.91897,8.8327112 499.375,6.2568719 488.20798,1.068456 476.4275,-0.58296449 464.625,1.3855204 c -2.41511,0.4028057 -5.85259,1.2587786 -8.27893,2.0615522 -5.40172,1.7871995 -11.48655,4.792692 -14.0698,6.9495184 -2.04107,1.704153 -8.448,7.757538 -17.04938,16.108565 l -3.41439,3.315018 -0.0382,-0.715178 -0.0382,-0.715176 6.2882,-6.294983 c 6.26217,-6.268927 8.04847,-7.939717 10.6632,-9.973687 4.68358,-3.6433026 10.25716,-6.6748806 16.1996,-8.8112756 6.74004,-2.4231414 14.94726,-3.63054785 22.09921,-3.25112976 5.48282,0.29086911 10.36519,1.17928086 15.26369,2.77742856 7.3007,2.3818722 13.55666,5.872213 19.75,11.0189638 1.09325,0.908509 16.5,16.183994 16.5,16.359425 0,0.192638 -1.08989,0.103367 -1.26142,-0.103321 z"
     id="path13442" />
  <path
     style="fill:#ffffff;stroke-width:0.0625"
     d="M 389.3125,61.335792 V 60.749909 L 405.5,44.5625 c 8.90312,-8.903075 16.19002,-16.173367 16.19309,-16.156205 0.003,0.01716 0.0242,0.363833 0.0469,0.770378 l 0.0413,0.739173 -2.46875,2.415216 c -3.51686,3.440595 -12.90866,12.675967 -16.18807,15.918447 -1.53,1.51277 -5.2636,5.207868 -8.29688,8.211328 l -5.51505,5.460837 z"
     id="path13481" />
  <path
     style="fill:#ffffff;stroke-width:0.015625"
     d="m 461.86436,55.789062 -0.31532,-0.0078 0.7997,-0.751812 c 3.24769,-3.053216 5.45785,-5.034748 6.51063,-5.837157 0.37272,-0.284078 0.51494,-0.365895 0.89844,-0.516881 1.76498,-0.694872 5.09851,-1.104508 6.69531,-0.822744 0.99753,0.176017 1.98098,0.672636 3.37967,1.706644 0.12718,0.09402 0.22819,0.173994 0.22446,0.177723 -0.004,0.0037 -0.0691,-0.03344 -0.1453,-0.0826 -0.0762,-0.04916 -0.25339,-0.155262 -0.39379,-0.235783 -1.4031,-0.804676 -2.9407,-1.267818 -4.578,-1.378945 -0.30307,-0.02057 -1.04754,-0.02061 -1.35422,-8.1e-5 -1.83672,0.122976 -3.57612,0.708326 -5.06731,1.705265 -0.36819,0.246152 -0.72069,0.516616 -1.07047,0.821351 -0.10469,0.09121 -1.33293,1.305415 -2.72941,2.698239 l -2.53906,2.532407 z"
     id="path13520" />
  <path
     style="fill:#ffffff;stroke-width:0.0110485"
     d="M 487.7048,57.098873 483.13624,52.5303 h 0.11331 0.1133 l 0.25682,0.234716 c 1.92962,1.76358 4.21672,3.951404 7.7643,7.427265 1.38457,1.356582 1.50193,1.47462 1.46649,1.474912 -0.0257,2.12e-4 -0.11782,-0.08607 -0.57488,-0.538364 -2.15134,-2.128896 -3.66938,-3.594276 -4.76602,-4.600665 -0.41551,-0.381315 -0.73928,-0.66232 -0.80145,-0.695593 -0.0401,-0.02148 -0.0343,3.5e-4 0.0159,0.05898 0.1799,0.210412 1.41092,1.468871 3.6488,3.730149 0.76581,0.773808 1.53324,1.550658 1.70542,1.726335 l 0.31304,0.319411 h -0.0589 -0.0589 z"
     id="path13559" />
  <path
     style="fill:#ffffff;stroke-width:0.0078125"
     d="m 482.50272,51.896518 c -0.34736,-0.347673 -0.70434,-0.704509 -0.7933,-0.792967 -0.089,-0.08846 -0.16016,-0.162327 -0.15823,-0.164153 0.005,-0.0052 0.35083,0.291385 0.82539,0.708764 0.36931,0.324808 0.9814,0.872425 0.97797,0.874955 -7.2e-4,5.32e-4 -0.0506,0.002 -0.11079,0.0033 l -0.10948,0.0023 z"
     id="path13598" />
  <path
     style="fill:#ffffff;stroke-width:0.00390625"
     d="m 495.06879,64.465582 -1.65978,-1.659784 0.0617,5.92e-4 0.0617,5.92e-4 0.0162,0.01519 c 0.009,0.0084 0.35759,0.358571 0.77486,0.778255 0.77622,0.780713 1.94079,1.950637 2.28799,2.298513 0.10672,0.106924 0.20171,0.202286 0.21109,0.211917 l 0.0171,0.01751 -0.0555,-0.0015 -0.0555,-0.0015 z"
     id="path13637" />
  <path
     style="fill:#ffffff;stroke-width:0.00390625"
     d="m 497.10471,65.925724 c -0.74707,-0.744021 -1.85352,-1.843655 -2.5493,-2.533611 -0.29826,-0.295757 -0.54999,-0.545687 -0.5594,-0.555399 l -0.0171,-0.01766 0.0436,0.0023 0.0436,0.0023 0.39882,0.39375 c 0.80866,0.798382 1.74657,1.725974 2.46089,2.433844 l 0.36819,0.364862 -0.001,0.04665 c -7e-4,0.02566 -0.002,0.04664 -0.002,0.04662 -6.7e-4,-1.8e-5 -0.0842,-0.08263 -0.18553,-0.183587 z"
     id="path13676" />
  <path
     style="fill:#ffffff;stroke-width:0.00390625"
     d="m 492.84196,62.238776 c -0.31081,-0.310758 -0.56506,-0.566463 -0.56502,-0.568233 5e-5,-0.0018 0.0269,-0.0025 0.0596,-0.0016 l 0.0595,0.0016 -0.0417,-0.04411 c -0.0229,-0.02426 -0.0403,-0.04408 -0.0387,-0.04403 0.002,4.3e-5 0.0993,0.0972 0.21702,0.215913 0.11776,0.118709 0.38991,0.3928 0.60477,0.609091 0.21487,0.216291 0.39063,0.394697 0.39058,0.396457 -5e-5,0.0018 -0.0273,0.0025 -0.0605,0.0016 l -0.0604,-0.0016 z"
     id="path13789" />
  <path
     style="fill:#ffffff;stroke-width:0.00390625"
     d="m 493.97895,62.815589 c -0.004,-0.0019 -0.15258,-0.146891 -0.32957,-0.322267 -0.17699,-0.175376 -0.46421,-0.459773 -0.63827,-0.631994 -0.17405,-0.172221 -0.31573,-0.313825 -0.31483,-0.314676 9e-4,-8.5e-4 0.0193,0.01509 0.041,0.03541 0.0549,0.0516 0.0972,0.08472 0.10861,0.08503 0.022,5.97e-4 0.0107,-0.01527 -0.0799,-0.111926 -0.0495,-0.05273 -0.0887,-0.09584 -0.0872,-0.0958 0.002,4.1e-5 0.12987,0.125255 0.28524,0.278253 0.78963,0.777576 1.08629,1.069732 1.0931,1.076508 0.007,0.0073 0.007,0.0074 -0.0314,0.0062 -0.0214,-7.16e-4 -0.0424,-0.0028 -0.0467,-0.0047 z"
     id="path13828" />
  <path
     style="fill:#ffffff;stroke-width:0.00390625"
     d="m 501.45744,70.854404 c -0.90708,-0.906969 -1.65433,-1.654321 -1.66056,-1.660782 l -0.0113,-0.01175 0.0513,0.0014 0.0513,0.0014 0.56631,0.567113 c 0.92536,0.926676 2.73233,2.734304 2.75,2.750999 0.002,0.0019 -0.0189,0.0028 -0.0471,0.002 l -0.0507,-0.0014 z"
     id="path13867" />
  <path
     style="fill:#ffffff;stroke-width:0.00390625"
     d="m 503.02345,71.832146 c -0.27742,-0.277752 -2.37196,-2.37075 -2.58968,-2.587785 l -0.0443,-0.04418 0.0581,4.95e-4 0.0581,4.95e-4 0.96571,0.959112 c 0.53114,0.527512 1.14202,1.134497 1.3575,1.348857 0.21549,0.214359 0.42909,0.426802 0.47467,0.472095 l 0.0829,0.08235 -0.002,0.06346 c -9.3e-4,0.0349 -0.002,0.06339 -0.003,0.06331 -5.3e-4,-8e-5 -0.1619,-0.161269 -0.3586,-0.358198 z"
     id="path13906" />
  <path
     style="fill:#ffffff;stroke-width:0.015625"
     d="m 498.31525,67.704047 c -0.80574,-0.805203 -1.48893,-1.488818 -1.5182,-1.519145 l -0.0532,-0.05514 0.0499,0.0062 c 0.0423,0.0053 0.26686,0.223871 1.48298,1.443946 0.78819,0.790761 1.4682,1.471789 1.51111,1.513397 0.0758,0.07345 0.0768,0.07563 0.0352,0.0752 -0.0357,-3.75e-4 -0.28532,-0.24279 -1.5078,-1.464455 z"
     id="path13945" />
  <path
     style="fill:#ffffff;stroke-width:0.015625"
     d="m 500.1194,68.920491 c -2.55918,-2.549153 -2.82007,-2.812993 -2.81904,-2.850931 9.8e-4,-0.03645 0.006,-0.03367 0.0809,0.04257 0.0439,0.04485 0.42921,0.427472 0.85621,0.850263 1.23376,1.221615 2.23002,2.211846 2.22989,2.216412 -6e-5,0.0023 -0.0164,0.0069 -0.0363,0.01012 -0.0294,0.0048 -0.088,-0.04563 -0.31164,-0.26843 z"
     id="path13984" />
  <path
     style="fill:#ffffff;stroke-width:0.00390625"
     d="m 507.7236,76.408255 c -0.62215,-0.629881 -1.72525,-1.739688 -2.53541,-2.550834 -0.18624,-0.186459 -0.3552,-0.355873 -0.37548,-0.376475 l -0.0369,-0.03746 1.65348,0.04477 1.65348,0.04476 -0.0426,1.575595 c -0.0235,0.866577 -0.0431,1.575453 -0.0436,1.575281 -5.3e-4,-1.71e-4 -0.12334,-0.124208 -0.27291,-0.275636 z"
     id="path14023" />
  <path
     style="fill:#ffffff;stroke-width:0.00390625"
     d="m 507.07244,75.888371 c -0.4781,-0.479863 -1.2228,-1.226707 -1.6549,-1.659653 l -0.78563,-0.787175 0.0683,7.8e-4 0.0683,7.79e-4 0.069,0.06955 c 0.038,0.03825 0.20427,0.204989 0.36958,0.370521 0.76499,0.766036 1.72942,1.736235 2.55626,2.571553 l 0.2321,0.234484 1.3e-4,0.03655 1.3e-4,0.03655 -0.027,-7.3e-4 -0.027,-7.3e-4 z"
     id="path14062" />
  <path
     style="fill:#ffffff;stroke-width:0.00390625"
     d=""
     id="path14101" />
  <path
     style="fill:#ffffff;stroke-width:0.00390625"
     d="m 505.6882,75.08499 -1.65982,-1.659786 0.0494,2.44e-4 0.0494,2.43e-4 1.03587,1.035428 c 0.56973,0.569486 1.3064,1.305402 1.63705,1.63537 0.33064,0.329968 0.61227,0.611443 0.62584,0.625502 l 0.0247,0.02556 -0.0513,-0.0014 -0.0513,-0.0014 z"
     id="path14140" />
  <path
     style="fill:#ffffff;stroke-width:0.00390625"
     d="m 505.69385,75.087096 -1.65789,-1.657779 0.0446,-0.0012 0.0446,-0.0012 0.0285,0.02896 c 0.0157,0.01593 0.20573,0.205947 0.42232,0.42226 0.68922,0.68834 2.44825,2.44564 2.6624,2.659769 0.11352,0.113515 0.20638,0.207075 0.20636,0.207912 -2e-5,8.38e-4 -0.021,9.56e-4 -0.0466,2.63e-4 l -0.0465,-0.0013 z"
     id="path14179" />
  <path
     style="fill:#ffffff;stroke-width:0.00390625"
     d="m 506.90676,76.196656 c -0.30343,-0.303051 -1.04815,-1.047233 -1.65492,-1.653738 -0.60678,-0.606505 -1.10673,-1.105849 -1.111,-1.109655 -0.007,-0.0066 0.005,-0.0066 0.23714,-4.18e-4 l 0.24491,0.0065 0.82854,0.830247 c 0.83175,0.833467 2.43434,2.440812 2.46625,2.473558 l 0.0171,0.01751 -0.23814,-0.0065 -0.23814,-0.0065 z"
     id="path14218" />
  <path
     style="fill:#ffffff;stroke-width:0.00390625"
     d="m 507.70622,76.520879 c -0.26666,-0.267813 -2.5733,-2.581059 -2.8742,-2.882442 l -0.19248,-0.192779 0.063,-4.73e-4 0.063,-4.73e-4 0.0247,0.02478 c 0.0136,0.01363 0.24729,0.247744 0.51931,0.520263 0.76661,0.768014 1.39121,1.396181 2.21766,2.230349 0.23633,0.238536 0.43778,0.441834 0.44766,0.451773 l 0.018,0.01807 4.6e-4,0.03616 4.7e-4,0.03616 -0.0243,-6.58e-4 -0.0243,-6.58e-4 z"
     id="path14257" />
  <path
     style="fill:#ffffff;stroke-width:0.00390625"
     d="m 507.708,76.522876 c -0.26679,-0.267969 -2.57403,-2.58182 -2.8742,-2.882437 l -0.19451,-0.194788 0.0632,-5.88e-4 0.0632,-5.89e-4 0.0247,0.02489 c 0.0136,0.01369 0.24729,0.247851 0.51931,0.520364 0.75875,0.760123 1.40095,1.405995 2.21766,2.230361 0.23633,0.238543 0.43778,0.441848 0.44766,0.451787 l 0.018,0.01807 4.6e-4,0.03616 4.7e-4,0.03616 -0.0244,-6.62e-4 -0.0244,-6.61e-4 z"
     id="path14296" />
  <path
     style="fill:#ffffff;stroke-width:0.00390625"
     d="m 504.59856,73.408271 c -0.0167,-0.01706 -0.29237,-0.29288 -0.61254,-0.612941 -0.32016,-0.320061 -0.58687,-0.586725 -0.59268,-0.592587 l -0.0106,-0.01066 0.003,-0.06309 0.003,-0.06309 0.12556,0.125139 c 0.64574,0.643543 1.24989,1.247898 1.24983,1.250244 -3e-5,10e-4 -0.0304,9.89e-4 -0.0674,-7.7e-5 l -0.0674,-0.0019 z"
     id="path14335" />
  <path
     style="fill:#ffffff;stroke-width:0.00390625"
     d="m 503.58179,72.97895 c -0.24447,-0.244334 -0.45134,-0.451322 -0.4597,-0.459974 l -0.0152,-0.01573 0.0511,0.0025 0.0511,0.0025 0.45525,0.45506 c 0.25038,0.250282 0.4552,0.456731 0.45514,0.458774 -6e-5,0.0021 -0.0198,0.0032 -0.0466,0.0025 l -0.0466,-0.0013 z"
     id="path14374" />
  <path
     style="fill:#ffffff;stroke-width:0.00390625"
     d="m 499.44921,68.846046 c -0.18468,-0.184697 -0.33489,-0.336649 -0.33381,-0.337672 10e-4,-0.001 0.0573,0.05301 0.12502,0.120069 0.32514,0.322148 0.50284,0.490716 0.56076,0.531924 0.0145,0.01028 0.03,0.01354 0.0428,0.009 0.0101,-0.0036 0.008,-0.01365 -0.007,-0.0299 -0.008,-0.0084 -0.0123,-0.01515 -0.0102,-0.0151 0.002,5.7e-5 0.0166,0.01364 0.0321,0.03018 l 0.0283,0.03007 -0.0509,-0.0014 -0.0509,-0.0014 z"
     id="path14413" />
  <path
     style="fill:#ffffff;stroke-width:0.00390625"
     d=""
     id="path14452" />
  <path
     style="fill:#ffffff;stroke-width:0.00390625"
     d=""
     id="path14491" />
  <path
     style="fill:#ffffff;stroke-width:0.00390625"
     d="m 501.09395,69.77861 c -0.25116,-0.249478 -0.92049,-0.913883 -1.48741,-1.476455 l -1.03077,-1.022859 1.52596,0.04033 c 0.83928,0.02218 1.52653,0.04094 1.52723,0.04168 7.1e-4,7.41e-4 -0.0166,0.646998 -0.0385,1.436126 l -0.0398,1.434777 z"
     id="path14530" />
  <path
     style="fill:#ffffff;stroke-width:0.00390625"
     d="m 501.0635,69.748555 c -0.2679,-0.266088 -0.93727,-0.930527 -1.4875,-1.476531 l -1.00042,-0.992734 1.52605,0.04033 c 0.83933,0.02218 1.52663,0.04094 1.52733,0.04168 7.1e-4,7.41e-4 -0.0166,0.647031 -0.0385,1.436199 l -0.0398,1.43485 z"
     id="path14569" />
  <path
     style="fill:#ffffff;stroke-width:0.0110485"
     d="m 457.9249,104.43645 c -2.54954,-2.54997 -4.66209,-4.663777 -4.69455,-4.697345 l -0.059,-0.06103 0.25599,0.0069 0.25599,0.0069 4.61457,4.613545 c 2.53801,2.53745 4.65081,4.65126 4.69511,4.69735 l 0.0805,0.0838 -0.25655,-0.007 -0.25656,-0.007 z"
     id="path14608" />
  <path
     style="fill:#ffffff;stroke-width:0.03125"
     d="m 448.31634,94.805944 c -2.66965,-2.669733 -4.94965,-4.954625 -5.06668,-5.077539 l -0.21278,-0.223479 0.23732,0.0153 0.23733,0.0153 4.83615,4.835777 c 2.65988,2.659677 4.93893,4.940122 5.06455,5.067656 l 0.22841,0.231879 -0.2352,-0.0054 -0.2352,-0.0054 z"
     id="path14647" />
  <path
     style="fill:#ffffff;stroke-width:0.0220971"
     d="m 442.56946,89.064264 -0.43582,-0.433661 0.22777,-0.0051 0.22777,-0.0051 0.1724,0.164122 c 0.0948,0.09027 0.29824,0.292293 0.45206,0.448945 l 0.27965,0.284823 -0.244,-0.01021 -0.244,-0.01021 z"
     id="path14686" />
  <path
     style="fill:#ffffff;stroke-width:0.0883883"
     d="m 344.69592,105.37893 c 0.34796,-0.34316 10.5074,-10.501681 22.57655,-22.574498 l 21.94389,-21.950575 0.0114,0.566019 0.0114,0.566018 -0.76233,0.737336 c -1.2029,1.163463 -19.88528,19.747239 -34.98797,34.803293 l -8.52699,8.500657 -0.44931,-0.0122 -0.44931,-0.0122 z"
     id="path14725" />
  <path
     style="fill:#ffffff;stroke-width:0.0625"
     d="m 494.20933,140.18782 c -0.0483,-0.0615 3.47208,-3.61729 14.56056,-14.70666 8.04336,-8.04401 14.63832,-14.61068 14.65545,-14.59259 0.0601,0.0634 -2.39803,2.7615 -4.84073,5.31321 -3.87355,4.04641 -12.1955,12.42752 -18.19638,18.32572 -2.34514,2.30501 -5.8064,5.59005 -5.97925,5.67483 -0.10374,0.0509 -0.151,0.0474 -0.19965,-0.0145 z"
     id="path14764" />
  <path
     style="fill:#ffffff;stroke-width:0.0110485"
     d="m 489.72802,135.99492 c -2.24324,-2.18303 -4.71983,-4.61271 -7.79413,-7.64651 l -1.38239,-1.36418 0.2138,0.003 0.2138,0.003 0.0384,0.0384 c 0.0211,0.0211 2.10859,2.10764 4.63886,4.63669 2.53027,2.52904 4.62705,4.62571 4.65951,4.65925 l 0.059,0.061 -0.12688,-0.004 -0.12688,-0.004 z"
     id="path14803" />
  <path
     style="fill:#ffffff;stroke-width:0.00552427"
     d="m 479.0152,125.4688 c -1.48059,-1.4651 -4.54181,-4.50323 -4.5417,-4.50745 4e-5,-10e-4 0.11132,7.1e-4 0.2473,0.004 l 0.24723,0.007 2.3324,2.33209 c 1.28282,1.28265 2.33961,2.33957 2.34843,2.3487 l 0.016,0.0166 -0.22953,-0.006 -0.22954,-0.006 z"
     id="path14842" />
  <path
     style="fill:#ffffff;stroke-width:0.0220971"
     d="m 474.35546,120.83067 c -0.0651,-0.0656 -0.78668,-0.78369 -1.60352,-1.59585 -1.99352,-1.98208 -4.22069,-4.20007 -4.32628,-4.30844 l -0.0857,-0.088 0.24709,0.007 0.24708,0.007 2.89053,2.88811 c 1.58978,1.58846 2.963,2.96355 3.05159,3.05576 l 0.16107,0.16766 -0.23174,-0.007 -0.23175,-0.007 z"
     id="path14881" />
  <path
     style="fill:#ffffff;stroke-width:0.0220971"
     d="m 479.99554,126.42599 c -0.30191,-0.29964 -0.59233,-0.5905 -0.64537,-0.64637 l -0.0964,-0.10157 0.20954,0.006 0.20955,0.006 0.58113,0.58014 c 0.31962,0.31908 0.60997,0.61025 0.64521,0.64704 l 0.0641,0.0669 -0.20939,-0.007 -0.20939,-0.007 z"
     id="path14920" />
  <path
     style="fill:#ffffff;stroke-width:0.00552427"
     d="m 468.06415,114.58051 c -0.1644,-0.16458 -0.60931,-0.60929 -0.98871,-0.98824 -0.37939,-0.37896 -0.68977,-0.69014 -0.68974,-0.6915 4e-5,-10e-4 0.11756,6.9e-4 0.26115,0.005 l 0.26108,0.007 0.97238,0.97227 c 0.53481,0.53474 0.97108,0.9735 0.96948,0.97502 -0.002,0.002 -0.006,-2.7e-4 -0.009,-0.004 -0.005,-0.005 -0.0706,-0.008 -0.25376,-0.0134 -0.13606,-0.004 -0.24744,-0.005 -0.2475,-0.003 -6e-5,0.002 0.008,0.0123 0.017,0.0226 0.009,0.0103 0.0148,0.0185 0.012,0.0182 -0.003,-2.8e-4 -0.13972,-0.13517 -0.30411,-0.29974 z"
     id="path14959" />
  <path
     style="fill:#ffffff;stroke-width:0.03125"
     d="m 464.50021,110.99422 -1.90563,-1.90384 0.23384,-0.003 0.23383,-0.003 1.72686,1.7251 c 0.94977,0.9488 1.80883,1.80968 1.90902,1.91306 l 0.18217,0.18796 -0.23723,-0.006 -0.23724,-0.006 z"
     id="path14998" />
  <path
     style="fill:#ffffff;stroke-width:0.03125"
     d="m 527.13632,106.02572 c 3.7e-4,-0.0159 0.0468,-0.14438 0.10309,-0.28543 0.27923,-0.69915 0.51499,-1.56826 0.64698,-2.38502 0.0923,-0.57079 0.13233,-2.05497 0.0704,-2.605 -0.13564,-1.203967 -0.40207,-2.2353 -0.8297,-3.211752 -0.087,-0.198542 -0.15236,-0.36642 -0.14534,-0.373064 0.0278,-0.02634 0.3316,0.469685 0.45204,0.738072 0.44114,0.983038 0.80643,2.099364 0.93494,2.857134 0.0889,0.52439 0.10795,0.78685 0.0941,1.29842 -0.0257,0.94973 -0.24739,1.82934 -0.72053,2.85898 -0.23025,0.50107 -0.60787,1.19136 -0.60594,1.10766 z"
     id="path15037" />
  <path
     style="fill:#ffffff;stroke-width:0.00552427"
     d="m 518.82935,88.225195 c -1.27978,-1.279569 -2.33652,-2.336483 -2.3483,-2.348699 l -0.0214,-0.02221 0.0662,0.0019 0.0662,0.0019 0.30675,0.304707 c 1.25134,1.243015 2.32767,2.303792 2.4447,2.409389 0.0159,0.01437 0.0307,0.02448 0.0328,0.02247 0.0273,-0.02587 -0.3211,-0.406906 -1.67544,-1.832302 l -0.85288,-0.897627 0.0353,9.56e-4 0.0353,9.55e-4 1.0984,1.161246 c 1.03599,1.095259 1.55679,1.649461 2.25833,2.403146 0.29012,0.311688 0.9109,0.982153 0.99827,1.078178 l 0.0425,0.04673 -0.0799,-0.0022 -0.0799,-0.0022 z"
     id="path15076" />
  <path
     style="fill:#ffffff;stroke-width:0.00390625"
     d="m 515.27791,84.674912 c -0.64863,-0.648503 -1.18958,-1.189806 -1.2021,-1.202895 l -0.0228,-0.0238 0.0605,0.0018 0.0605,0.0018 0.12757,0.127355 c 0.16991,0.169633 1.33699,1.330726 1.86732,1.857751 l 0.42337,0.420729 -0.0675,-0.0018 -0.0675,-0.0018 z"
     id="path15115" />
  <path
     style="fill:#ffffff;stroke-width:0.00390625"
     d="m 516.22088,85.212085 c -0.34277,-0.358609 -0.85962,-0.898733 -1.14856,-1.200278 l -0.52535,-0.548262 0.0339,-2.22e-4 0.0339,-2.22e-4 0.0896,0.09361 c 0.0493,0.05148 0.26402,0.274912 0.47724,0.496507 0.21323,0.221594 0.62937,0.655693 0.92476,0.964665 0.2954,0.308972 0.59894,0.626212 0.67453,0.704978 l 0.13745,0.143211 -0.0371,-9.84e-4 -0.0371,-9.85e-4 -0.6232,-0.652015 z"
     id="path15154" />
  <path
     style="fill:#ffffff;stroke-width:0.00390625"
     d="m 513.47601,82.872822 -0.57542,-0.575354 0.0574,4.72e-4 0.0574,4.71e-4 0.57175,0.569076 c 0.31446,0.312992 0.57512,0.572434 0.57925,0.576539 0.007,0.0073 0.006,0.0074 -0.0537,0.0058 l -0.0612,-0.0017 z"
     id="path15193" />
  <path
     style="fill:#ffffff;stroke-width:0.00390625"
     d=""
     id="path15232" />
  <path
     style="fill:#ffffff;stroke-width:0.00390625"
     d="m 514.24286,83.146052 c -0.16617,-0.173464 -0.41565,-0.432096 -0.55441,-0.574737 l -0.25228,-0.259347 0.0324,-2.69e-4 0.0324,-2.69e-4 0.0477,0.04963 c 0.0263,0.0273 0.17085,0.176799 0.32132,0.33223 0.47568,0.491343 0.73599,0.761592 0.73671,0.764842 3.9e-4,0.0017 -0.0134,0.0032 -0.0306,0.0032 l -0.0313,8.3e-5 z"
     id="path15271" />
  <path
     style="fill:#ffffff;stroke-width:0.00390625"
     d="m 512.20587,81.602631 -0.69271,-0.692828 0.0561,0.0015 0.0561,0.0015 0.15181,0.151416 c 0.0835,0.08328 0.39452,0.393339 0.69117,0.689023 0.29665,0.295683 0.53931,0.539299 0.53926,0.541368 -6e-5,0.0022 -0.0222,0.0032 -0.0546,0.0023 l -0.0545,-0.0015 z"
     id="path15310" />
  <path
     style="fill:#ffffff;stroke-width:0.00390625"
     d="m 513.2388,82.110264 c -0.22955,-0.2344 -0.74165,-0.755295 -0.9893,-1.006294 -0.0957,-0.09697 -0.17394,-0.176899 -0.17392,-0.177623 2e-5,-7.24e-4 0.0181,-8.27e-4 0.0402,-2.29e-4 l 0.0402,0.0011 0.0987,0.10127 c 0.15419,0.158218 0.81028,0.833273 1.03644,1.066398 0.1123,0.115766 0.20328,0.211866 0.20217,0.213557 -10e-4,0.0017 -0.0148,0.0027 -0.0305,0.0023 l -0.0285,-7.71e-4 z"
     id="path15349" />
  <path
     style="fill:#ffffff;stroke-width:0.00390625"
     d="m 510.779,80.176126 c -0.40281,-0.403206 -0.7478,-0.748287 -0.76664,-0.766848 l -0.0342,-0.03375 0.0547,0.0015 0.0547,0.0015 0.75528,0.753298 c 0.4154,0.414314 0.76124,0.75952 0.76852,0.767125 l 0.0132,0.01383 -0.0565,-0.0018 -0.0566,-0.0018 z"
     id="path15388" />
  <path
     style="fill:#ffffff;stroke-width:0.00390625"
     d="m 511.96478,80.815423 c -0.15996,-0.162334 -0.7975,-0.806845 -1.1229,-1.135175 l -0.28453,-0.287102 0.0496,2.46e-4 0.0496,2.46e-4 0.0233,0.02319 c 0.0537,0.05349 1.30386,1.332325 1.43016,1.463003 l 0.0456,0.0472 -0.0415,-0.001 -0.0415,-10e-4 z"
     id="path15427" />
  <path
     style="fill:#ffffff;stroke-width:0.00390625"
     d="m 509.25713,78.654258 c -0.39655,-0.396553 -0.72868,-0.729089 -0.73809,-0.738967 l -0.0171,-0.01796 0.0532,0.0025 0.0531,0.0025 0.2716,0.27128 c 0.14938,0.149204 0.47621,0.475247 0.72629,0.724539 0.25009,0.249292 0.46066,0.459342 0.46795,0.466778 l 0.0132,0.01352 -0.0546,-0.0016 -0.0546,-0.0016 z"
     id="path15466" />
  <path
     style="fill:#ffffff;stroke-width:0.00390625"
     d="m 510.03047,78.862091 c -0.28881,-0.290979 -0.61852,-0.623022 -0.7327,-0.737873 l -0.20759,-0.208819 0.0584,5.02e-4 0.0584,5.02e-4 0.20237,0.205849 c 0.24257,0.246758 1.01571,1.033878 1.14827,1.169044 0.0518,0.05284 0.0942,0.09751 0.0941,0.09926 -4e-5,0.0018 -0.0217,0.0026 -0.0481,0.0019 l -0.048,-0.0013 z"
     id="path15505" />
  <path
     style="fill:#ffffff;stroke-width:0.00552427"
     d="m 507.95778,77.353621 c -0.29875,-0.298574 -0.55646,-0.556721 -0.57269,-0.57366 l -0.0295,-0.0308 0.0496,0.0014 0.0496,0.0014 0.54078,0.539851 c 0.29742,0.296919 0.55526,0.555039 0.57296,0.573601 l 0.0322,0.03375 -0.0499,-0.0014 -0.0499,-0.0014 z"
     id="path15544" />
  <path
     style="fill:#ffffff;stroke-width:0.00552427"
     d="m 508.51861,77.339921 -0.56828,-0.571895 0.024,-0.001 0.024,-0.001 0.003,-0.03338 0.003,-0.03338 0.15062,0.152239 c 0.46583,0.470856 1.04617,1.059871 1.04611,1.061761 -3e-5,0.0012 -0.0255,0.0014 -0.0566,3.88e-4 l -0.0566,-0.0018 z"
     id="path15583" />
  <path
     style="fill:#ffffff;stroke-width:0.00552427"
     d="m 399.64849,117.28234 c 0.0143,-0.0141 0.48568,-0.4856 1.04745,-1.04789 0.56178,-0.56229 1.0235,-1.02229 1.02605,-1.02222 0.003,7e-5 0.50177,0.49728 1.10937,1.1049 l 1.10472,1.10477 -0.209,-0.004 -0.20901,-0.004 -0.75694,-0.75693 c -0.41632,-0.41632 -0.75876,-0.75699 -0.76098,-0.75705 -0.002,-6e-5 -0.32649,0.32253 -0.7206,0.71687 l -0.71658,0.71698 -0.47027,-0.0127 -0.47026,-0.0127 z"
     id="path15622" />
  <path
     style="fill:#ffffff;stroke-width:0.0441942"
     d="m 362.07425,154.91353 c 0.0783,-0.0778 8.07918,-8.08343 17.77976,-17.79025 l 17.63743,-17.64875 0.45111,-5.1e-4 0.45112,-5e-4 -0.16557,0.16297 c -0.0911,0.0896 -8.09246,8.09523 -17.78089,17.79022 l -17.61532,17.62725 -0.44999,5.3e-4 -0.44999,5.3e-4 z"
     id="path15661" />
</svg>
