<?xml version="1.0" encoding="UTF-8" standalone="no"?>
<svg
   aria-hidden="true"
   focusable="false"
   data-prefix="far"
   data-icon="folder"
   class="svg-inline--fa fa-folder fa-w-16"
   role="img"
   viewBox="0 0 512 512"
   version="1.1"
   id="svg19"
   sodipodi:docname="folder-regular.svg"
   inkscape:version="1.1 (c68e22c387, 2021-05-23)"
   xmlns:inkscape="http://www.inkscape.org/namespaces/inkscape"
   xmlns:sodipodi="http://sodipodi.sourceforge.net/DTD/sodipodi-0.dtd"
   xmlns="http://www.w3.org/2000/svg"
   xmlns:svg="http://www.w3.org/2000/svg">
  <defs
     id="defs23" />
  <sodipodi:namedview
     id="namedview21"
     pagecolor="#505050"
     bordercolor="#eeeeee"
     borderopacity="1"
     inkscape:pageshadow="0"
     inkscape:pageopacity="0"
     inkscape:pagecheckerboard="0"
     showgrid="false"
     inkscape:zoom="1.4142136"
     inkscape:cx="211.07137"
     inkscape:cy="251.37646"
     inkscape:window-width="1366"
     inkscape:window-height="705"
     inkscape:window-x="-8"
     inkscape:window-y="-8"
     inkscape:window-maximized="1"
     inkscape:current-layer="svg19" />
  <path
     fill="currentColor"
     d="M464 128H272l-54.63-54.63c-6-6-14.14-9.37-22.63-9.37H48C21.49 64 0 85.49 0 112v288c0 26.51 21.49 48 48 48h416c26.51 0 48-21.49 48-48V176c0-26.51-21.49-48-48-48zm0 272H48V112h140.12l54.63 54.63c6 6 14.14 9.37 22.63 9.37H464v224z"
     id="path17"
     style="fill:#ffffff" />
  <path
     style="fill:#ffffff"
     d="M 36.056338,445.74465 C 17.309778,440.8446 3.6181684,425.04487 1.0646995,405.36527 c -1.34512375,-10.36688 -1.34512375,-288.36366 0,-298.73053 C 3.0207685,91.559302 11.939718,78.066392 24.818919,70.698495 35.970209,64.319097 36.526685,64.284797 123.62173,64.608501 l 78.80885,0.292907 5.15091,2.368248 c 3.98981,1.834407 11.77437,8.975138 34.53428,31.678068 l 29.38336,29.309826 h 97.39725 c 65.30023,0 99.41168,0.36676 103.50999,1.11292 19.89046,3.6214 35.93797,20.7439 38.5426,41.1245 1.32258,10.34893 1.31011,224.66792 -0.0137,234.8703 -1.97403,15.21385 -11.42662,29.32284 -24.31826,36.29757 -11.56935,6.25932 1.59875,5.92454 -231.13213,5.87623 C 58.716265,447.49822 42.250025,447.36356 36.056338,445.74465 Z M 464.61167,287.9549 V 175.68446 l -103.27565,-0.27685 -103.27566,-0.27683 -5.1509,-2.36825 c -3.98981,-1.8344 -11.77438,-8.97513 -34.53428,-31.67806 L 188.99182,111.77465 H 118.19007 47.38833 V 256 400.22535 H 256 464.61167 Z"
     id="path179" />
  <path
     style="fill:#ffffff;stroke-width:0.00804829"
     d="m 464,314.32596 v -3.32797 h 0.30584 0.30583 v 3.32797 3.32796 H 464.30584 464 Z"
     id="path218" />
  <path
     style="fill:#ffffff;stroke-width:0.022764"
     d="m 464.0214,307.05223 v -3.93817 h 0.28455 0.28455 v 3.93817 3.93817 h -0.28455 -0.28455 z"
     id="path257" />
  <path
     style="fill:#ffffff;stroke-width:0.00390625"
     d="m 464.5928,310.39258 c 9.9e-4,-0.59799 10e-4,-0.60156 0.009,-0.60156 0.008,0 0.008,0.003 0.008,0.60156 v 0.60156 h -0.009 -0.009 z"
     id="path296" />
  <path
     style="fill:#ffffff;stroke-width:0.00390625"
     d="m 464,310.39258 v -0.60156 h 0.01 0.01 v 0.60156 0.60156 H 464.01 464 Z"
     id="path335" />
  <path
     style="fill:#ffffff;stroke-width:0.0625"
     d="m 464,294.25 v -8.84375 h 0.28125 0.28125 v 8.84375 8.84375 H 464.28125 464 Z"
     id="path374" />
  <path
     style="fill:#ffffff;stroke-width:0.0625"
     d="m 464,327.375 v -9.71875 h 0.28125 0.28125 v 9.71875 9.71875 H 464.28125 464 Z"
     id="path413" />
  <path
     style="fill:#ffffff;stroke-width:0.125"
     d="m 464,351 c 0,-13.72917 0.002,-13.8125 0.25,-13.8125 0.24849,0 0.25,0.0833 0.25,13.8125 0,13.72917 -0.002,13.8125 -0.25,13.8125 -0.24849,0 -0.25,-0.0833 -0.25,-13.8125 z"
     id="path452" />
  <path
     style="fill:#ffffff;stroke-width:0.03125"
     d="m 464,221.6875 v -12.92188 h 0.29687 0.29688 v 12.92188 12.92187 H 464.29687 464 Z"
     id="path491" />
  <path
     style="fill:#ffffff;stroke-width:0.0883883"
     d="m 464.65754,226.009 v -36.54858 h 17.01476 17.01476 V 226.009 262.55759 H 481.6723 464.65754 Z"
     id="path530" />
  <path
     style="fill:#ffffff;stroke-width:0.0883883"
     d="m 464.03882,248.59223 v -13.96536 h 0.26517 0.26516 v 13.96536 13.96536 h -0.26516 -0.26517 z"
     id="path569" />
  <path
     style="fill:#ffffff;stroke-width:0.0625"
     d="m 464.625,201.16395 v -25.49231 l -10.57813,-0.0403 c -5.81796,-0.0222 -21.44843,-0.0671 -34.73437,-0.0999 -13.28594,-0.0327 -29.49297,-0.0778 -36.01563,-0.10022 l -11.85937,-0.0407 v -0.21091 -0.21092 h 58.625 58.625 v 25.84375 25.84375 H 476.65625 464.625 Z"
     id="path608" />
  <path
     style="fill:#ffffff;stroke-width:0.0625"
     d="m 464,192.34375 v -16.375 H 417.71875 371.4375 v -0.25 -0.25 l 1.98437,-2.9e-4 c 4.4082,-6.6e-4 72.2822,0.18693 81.375,0.22489 l 9.76563,0.0408 v 16.49231 16.49231 H 464.28125 464 Z"
     id="path647" />
  <path
     style="fill:#ffffff;stroke-width:0.176777"
     d="m 262.77856,175.78208 c -5.41043,-0.45884 -2.02877,-0.4964 37.38827,-0.41522 22.41086,0.0462 47.60817,0.0839 55.99402,0.084 13.43501,3e-5 15.24699,0.0316 15.24699,0.2652 0,0.23518 -6.04367,0.26239 -53.43076,0.24057 -29.38692,-0.0135 -54.22625,-0.0921 -55.19852,-0.17452 z"
     id="path686" />
  <path
     style="fill:#ffffff;stroke-width:0.176777"
     d="m 254.20489,173.8777 c -2.79263,-1.04331 -6.23598,-2.99948 -8.83884,-5.02138 -0.63197,-0.49092 -13.75931,-13.48701 -29.17186,-28.8802 l -28.02282,-27.98761 -65.84561,-0.0447 -65.845606,-0.0447 66.180956,-0.044 66.18097,-0.044 19.9186,19.84318 c 34.78256,34.65088 39.19365,38.73507 44.82549,41.5037 2.60528,1.28077 2.83452,1.54737 0.61872,0.71956 z"
     id="path725" />
  <path
     style="fill:#ffffff;stroke-width:0.0625"
     d="M 47.4375,140.375 V 114.53125 H 47.71875 48 V 140.375 166.21875 H 47.71875 47.4375 Z"
     id="path764" />
  <path
     style="fill:#ffffff;stroke-width:0.0110485"
     d="m 47.398251,115.19211 v -3.40847 h 6.800379 6.800378 v 0.0552 0.0552 l -2.101985,0.003 -2.101985,0.003 2.101985,0.003 2.101985,0.003 v 0.0442 0.0442 h -6.502067 -6.502068 v 1.26506 1.26506 h -0.281738 -0.281738 v 2.03845 c 0,1.8046 -0.0019,2.03846 -0.01657,2.03846 -0.0147,0 -0.01657,-0.38609 -0.01657,-3.40848 z"
     id="path803" />
  <path
     style="fill:#ffffff;stroke-width:0.00390625"
     d="m 61,111.83789 v -0.0547 h -0.255859 c -0.167969,0 -0.25586,-0.001 -0.25586,-0.004 0,-0.003 1.223959,-0.004 3.664063,-0.004 h 3.664062 v 0.056 0.056 l -0.990883,0.003 c -0.544987,10e-4 -2.078678,0.003 -3.408204,0.003 H 61 Z"
     id="path842" />
  <path
     style="fill:#ffffff;stroke-width:0.00390625"
     d="m 61,111.95052 v -0.0475 l 2.485025,0.003 c 1.366764,0.001 2.900456,0.003 3.408204,0.003 h 0.923177 v 0.0449 0.0449 H 64.408203 61 Z"
     id="path881" />
  <path
     style="fill:#ffffff;stroke-width:0.00390625"
     d="m 67.816406,111.95313 v -0.0449 h 1.112692 c 0.611981,0 1.126141,10e-4 1.142578,0.003 l 0.02989,0.003 v 0.0424 0.0424 H 68.958988 67.81641 Z"
     id="path920" />
  <path
     style="fill:#ffffff;stroke-width:0.00390625"
     d="m 67.816406,111.83203 v -0.0566 h 1.142578 1.142578 v 0.0566 0.0566 h -1.142578 -1.142578 z"
     id="path959" />
  <path
     style="fill:#ffffff;stroke-width:0.00390625"
     d="m 70.101562,111.95508 v -0.043 h 2.03125 2.03125 v 0.043 0.043 h -2.03125 -2.03125 z"
     id="path998" />
  <path
     style="fill:#ffffff;stroke-width:0.00390625"
     d="m 70.101562,111.83203 v -0.0566 h 2.03125 2.03125 v 0.054 0.054 l -1.344726,0.003 c -0.7396,10e-4 -1.653662,0.003 -2.03125,0.003 h -0.686524 z"
     id="path1037" />
  <path
     style="fill:#ffffff;stroke-width:0.00390625"
     d="m 74.164062,111.83008 v -0.0547 h 1.833985 1.833984 v 0.0547 0.0547 h -1.833984 -1.833985 z"
     id="path1076" />
  <path
     style="fill:#ffffff;stroke-width:0.00390625"
     d="m 74.164062,111.95443 v -0.0436 l 1.239258,0.003 c 0.681592,10e-4 1.506885,0.003 1.833985,0.003 l 0.594726,10e-6 v 0.041 0.041 h -1.833984 -1.833985 z"
     id="path1115" />
  <path
     style="fill:#ffffff;stroke-width:0.00390625"
     d="m 77.832031,111.83072 v -0.0553 h 1.986328 1.986328 v 0.0527 0.0527 h -1.675135 c -0.921325,0 -1.815173,0.001 -1.986328,0.003 l -0.311193,0.003 z"
     id="path1154" />
  <path
     style="fill:#ffffff;stroke-width:0.00390625"
     d="m 77.832031,111.95703 v -0.041 h 1.809906 c 0.995448,0 1.889296,10e-4 1.986328,0.003 l 0.176422,0.003 v 0.0384 0.0384 h -1.986328 -1.986328 z"
     id="path1193" />
  <path
     style="fill:#ffffff;stroke-width:0.00390625"
     d="m 47.390625,118.21094 c 0,-1.07422 0.0013,-1.61524 0.0039,-1.61524 0.0026,0 0.004,0.2602 0.0041,0.77246 1.53e-4,0.71635 0.004,1.1788 0.01005,1.21875 0.0027,0.0176 0.0067,0.0211 0.01119,0.01 0.0078,-0.0197 0.01073,-0.25773 0.01337,-1.08887 0.0029,-0.90323 0.0029,-0.89491 0.0036,0.70215 l 6.94e-4,1.61621 h -0.02344 -0.02344 z"
     id="path1232" />
  <path
     style="fill:#ffffff;stroke-width:0.00390625"
     d="m 47.386719,115.42578 c 0,-0.88909 8.76e-4,-1.61566 0.0019,-1.61459 0.0026,0.003 0.0026,3.2266 2.2e-5,3.22916 -0.0011,10e-4 -0.002,-0.72547 -0.002,-1.61457 z"
     id="path1271" />
  <path
     style="fill:#ffffff;stroke-width:0.00390625"
     d="m 47.388224,115.1543 c 0,-0.0269 6.24e-4,-0.0378 0.0014,-0.0244 7.63e-4,0.0134 7.63e-4,0.0354 0,0.0488 -7.63e-4,0.0134 -0.0014,0.002 -0.0014,-0.0244 z"
     id="path1310" />
  <path
     style="fill:#ffffff;stroke-width:0.00390625"
     d="m 47.396445,114.55469 c 0,-0.41035 4.57e-4,-0.5788 10e-4,-0.37434 5.59e-4,0.20447 5.59e-4,0.54021 0,0.7461 -5.59e-4,0.20588 -10e-4,0.0386 -10e-4,-0.37176 z"
     id="path1349" />
  <path
     style="fill:#ffffff;stroke-width:0.00390625"
     d="m 47.396299,115.15625 c 10e-7,-0.0795 5.22e-4,-0.11146 0.0012,-0.071 6.36e-4,0.0404 6.35e-4,0.10546 -2e-6,0.14453 -6.36e-4,0.0391 -0.0012,0.006 -0.0012,-0.0735 z"
     id="path1388" />
  <path
     style="fill:#ffffff;stroke-width:0.00390625"
     d="m 47.401039,116.23177 c -0.0014,-0.44508 -0.0026,-1.17194 -0.0026,-1.61523 v -0.80599 h 0.296875 0.296875 v 0.35547 0.35546 h -0.28125 -0.28125 v 1.25977 1.25977 h -0.01302 -0.01302 z"
     id="path1427" />
  <path
     style="fill:#ffffff;stroke-width:0.00390625"
     d="m 47.390625,120.28906 v -0.45898 h 0.02344 0.02344 v 0.45898 0.45899 h -0.02344 -0.02344 z"
     id="path1466" />
  <path
     style="fill:#ffffff;stroke-width:0.00390625"
     d="m 47.390625,122.1543 v -1.40625 h 0.02344 0.02344 v 1.40625 1.40625 h -0.02344 -0.02344 z"
     id="path1505" />
  <path
     style="fill:#ffffff;stroke-width:0.00390625"
     d="m 47.390625,124.6543 v -1.09375 h 0.02344 0.02344 v 1.09375 1.09375 h -0.02344 -0.02344 z"
     id="path1544" />
  <path
     style="fill:#ffffff;stroke-width:0.00390625"
     d="m 47.390625,126.8418 v -1.09375 h 0.02344 0.02344 v 1.09375 1.09375 h -0.02344 -0.02344 z"
     id="path1583" />
  <path
     style="fill:#ffffff;stroke-width:0.00390625"
     d="m 47.390625,128.87305 v -0.9375 h 0.02344 0.02344 v 0.9375 0.9375 h -0.02344 -0.02344 z"
     id="path1622" />
  <path
     style="fill:#ffffff;stroke-width:0.00390625"
     d="m 47.390625,130.5918 v -0.78125 h 0.02344 0.02344 v 0.78125 0.78125 h -0.02344 -0.02344 z"
     id="path1661" />
  <path
     style="fill:#ffffff;stroke-width:0.00390625"
     d="m 47.390625,132.31055 v -0.9375 h 0.02344 0.02344 v 0.9375 0.9375 h -0.02344 -0.02344 z"
     id="path1700" />
  <path
     style="fill:#ffffff;stroke-width:0.00390625"
     d="m 47.390625,134.0293 v -0.78125 h 0.02344 0.02344 v 0.78125 0.78125 h -0.02344 -0.02344 z"
     id="path1739" />
  <path
     style="fill:#ffffff;stroke-width:0.00390625"
     d="m 47.390625,135.5918 v -0.78125 h 0.02344 0.02344 v 0.78125 0.78125 h -0.02344 -0.02344 z"
     id="path1778" />
  <path
     style="fill:#ffffff;stroke-width:0.00390625"
     d="m 47.390625,137.31055 v -0.9375 h 0.02344 0.02344 v 0.9375 0.9375 h -0.02344 -0.02344 z"
     id="path1817" />
  <path
     style="fill:#ffffff;stroke-width:0.00390625"
     d="m 47.390625,139.0293 v -0.78125 h 0.02344 0.02344 v 0.78125 0.78125 h -0.02344 -0.02344 z"
     id="path1856" />
  <path
     style="fill:#ffffff;stroke-width:0.00390625"
     d="m 47.390625,140.74805 v -0.9375 h 0.02344 0.02344 v 0.9375 0.9375 h -0.02344 -0.02344 z"
     id="path1895" />
  <path
     style="fill:#ffffff;stroke-width:0.00390625"
     d="m 47.390625,142.31055 v -0.625 h 0.02344 0.02344 v 0.625 0.625 h -0.02344 -0.02344 z"
     id="path1934" />
  <path
     style="fill:#ffffff;stroke-width:0.00390625"
     d="m 47.390625,143.7168 v -0.78125 h 0.02344 0.02344 v 0.78125 0.78125 h -0.02344 -0.02344 z"
     id="path1973" />
  <path
     style="fill:#ffffff;stroke-width:0.00390625"
     d="m 47.390625,145.43555 v -0.9375 h 0.02344 0.02344 v 0.9375 0.9375 h -0.02344 -0.02344 z"
     id="path2012" />
  <path
     style="fill:#ffffff;stroke-width:0.00390625"
     d="m 47.390625,147.1543 v -0.78125 h 0.02344 0.02344 v 0.78125 0.78125 h -0.02344 -0.02344 z"
     id="path2051" />
  <path
     style="fill:#ffffff;stroke-width:0.00390625"
     d="m 47.390625,148.56055 v -0.625 h 0.02344 0.02344 v 0.625 0.625 h -0.02344 -0.02344 z"
     id="path2090" />
  <path
     style="fill:#ffffff;stroke-width:0.00390625"
     d="m 47.390625,150.2793 v -1.09375 h 0.02344 0.02344 v 1.09375 1.09375 h -0.02344 -0.02344 z"
     id="path2129" />
  <path
     style="fill:#ffffff;stroke-width:0.00390625"
     d="m 47.390625,151.99805 v -0.625 h 0.02344 0.02344 v 0.625 0.625 h -0.02344 -0.02344 z"
     id="path2168" />
  <path
     style="fill:#ffffff;stroke-width:0.00390625"
     d="m 47.390625,153.56055 v -0.9375 h 0.02344 0.02344 v 0.9375 0.9375 h -0.02344 -0.02344 z"
     id="path2207" />
  <path
     style="fill:#ffffff;stroke-width:0.00390625"
     d="m 47.390625,155.2793 v -0.78125 h 0.02344 0.02344 v 0.78125 0.78125 h -0.02344 -0.02344 z"
     id="path2246" />
  <path
     style="fill:#ffffff;stroke-width:0.00390625"
     d="m 47.390625,156.8418 v -0.78125 h 0.02344 0.02344 v 0.78125 0.78125 h -0.02344 -0.02344 z"
     id="path2285" />
  <path
     style="fill:#ffffff;stroke-width:0.00390625"
     d="m 47.390625,158.4043 v -0.78125 h 0.02344 0.02344 v 0.78125 0.78125 h -0.02344 -0.02344 z"
     id="path2324" />
  <path
     style="fill:#ffffff;stroke-width:0.00390625"
     d="m 47.390625,159.9668 v -0.78125 h 0.02344 0.02344 v 0.78125 0.78125 h -0.02344 -0.02344 z"
     id="path2363" />
  <path
     style="fill:#ffffff;stroke-width:0.00390625"
     d="m 47.390625,161.5293 v -0.78125 h 0.02344 0.02344 v 0.78125 0.78125 h -0.02344 -0.02344 z"
     id="path2402" />
  <path
     style="fill:#ffffff;stroke-width:0.00390625"
     d="m 47.390625,163.24805 v -0.9375 h 0.02344 0.02344 v 0.9375 0.9375 h -0.02344 -0.02344 z"
     id="path2441" />
  <path
     style="fill:#ffffff;stroke-width:0.00390625"
     d="m 47.390625,165.12305 v -0.9375 h 0.02344 0.02344 v 0.9375 0.9375 h -0.02344 -0.02344 z"
     id="path2480" />
  <path
     style="fill:#ffffff;stroke-width:0.00390625"
     d="m 47.390625,166.99805 v -0.9375 h 0.02344 0.02344 v 0.0801 0.0801 H 47.71875 48 v 0.85742 0.85743 h -0.304688 -0.304687 z"
     id="path2519" />
  <path
     style="fill:#ffffff;stroke-width:0.00390625"
     d="m 47.390625,168.875 v -0.93555 H 47.695312 48 v 0.93555 0.93555 h -0.304688 -0.304687 z"
     id="path2558" />
  <path
     style="fill:#ffffff;stroke-width:0.00390625"
     d="m 47.390625,170.5918 v -0.78125 H 47.695312 48 v 0.78125 0.78125 h -0.304688 -0.304687 z"
     id="path2597" />
  <path
     style="fill:#ffffff;stroke-width:0.00390625"
     d="m 47.390625,172.4668 v -1.09375 H 47.695312 48 v 1.09375 1.09375 h -0.304688 -0.304687 z"
     id="path2636" />
  <path
     style="fill:#ffffff;stroke-width:0.00390625"
     d="m 47.390625,174.6543 v -1.09375 H 47.695312 48 v 1.09375 1.09375 h -0.304688 -0.304687 z"
     id="path2675" />
  <path
     style="fill:#ffffff;stroke-width:0.00390625"
     d="m 47.390625,177.1543 v -1.40625 H 47.695312 48 v 1.40625 1.40625 h -0.304688 -0.304687 z"
     id="path2714" />
  <path
     style="fill:#ffffff;stroke-width:0.00390625"
     d="m 47.390625,179.6543 v -1.09375 H 47.695312 48 v 1.09375 1.09375 h -0.304688 -0.304687 z"
     id="path2753" />
  <path
     style="fill:#ffffff;stroke-width:0.00390625"
     d="m 47.390625,181.8418 v -1.09375 H 47.695312 48 v 1.09375 1.09375 h -0.304688 -0.304687 z"
     id="path2792" />
  <path
     style="fill:#ffffff;stroke-width:0.00390625"
     d="m 47.390625,183.87305 v -0.9375 H 47.695312 48 v 0.9375 0.9375 h -0.304688 -0.304687 z"
     id="path2831" />
  <path
     style="fill:#ffffff;stroke-width:0.00390625"
     d="m 47.390625,185.74805 v -0.9375 H 47.695312 48 v 0.9375 0.9375 h -0.304688 -0.304687 z"
     id="path2870" />
  <path
     style="fill:#ffffff;stroke-width:0.00390625"
     d="m 47.390625,187.7793 v -1.09375 H 47.695312 48 v 1.09375 1.09375 h -0.304688 -0.304687 z"
     id="path2909" />
  <path
     style="fill:#ffffff;stroke-width:0.00390625"
     d="m 47.390625,190.12305 v -1.25 H 47.695312 48 v 1.25 1.25 h -0.304688 -0.304687 z"
     id="path2948" />
  <path
     style="fill:#ffffff;stroke-width:0.00390625"
     d="m 47.390625,192.7793 v -1.40625 H 47.695312 48 v 1.40625 1.40625 h -0.304688 -0.304687 z"
     id="path2987" />
  <path
     style="fill:#ffffff;stroke-width:0.00390625"
     d="m 47.390625,195.43555 v -1.25 H 47.695312 48 v 1.25 1.25 h -0.304688 -0.304687 z"
     id="path3026" />
  <path
     style="fill:#ffffff;stroke-width:0.00390625"
     d="m 47.390625,197.62305 v -0.9375 H 47.695312 48 v 0.9375 0.9375 h -0.304688 -0.304687 z"
     id="path3065" />
  <path
     style="fill:#ffffff;stroke-width:0.00390625"
     d="m 47.390625,200.38281 v -1.61523 H 47.695312 48 v 1.61523 1.61524 h -0.304688 -0.304687 z"
     id="path3104" />
  <path
     style="fill:#ffffff;stroke-width:0.00390625"
     d="m 47.390625,202.93555 v -0.9375 H 47.695312 48 v 0.9375 0.9375 h -0.304688 -0.304687 z"
     id="path3143" />
  <path
     style="fill:#ffffff;stroke-width:0.00390625"
     d="m 47.390625,205.2793 v -1.40625 H 47.695312 48 v 1.40625 1.40625 h -0.304688 -0.304687 z"
     id="path3182" />
  <path
     style="fill:#ffffff;stroke-width:0.00390625"
     d="m 47.390625,207.7793 v -1.09375 H 47.695312 48 v 1.09375 1.09375 h -0.304688 -0.304687 z"
     id="path3221" />
  <path
     style="fill:#ffffff;stroke-width:0.00390625"
     d="m 47.390625,210.2793 v -1.40625 H 47.695312 48 v 1.40625 1.40625 h -0.304688 -0.304687 z"
     id="path3260" />
  <path
     style="fill:#ffffff;stroke-width:0.00390625"
     d="m 47.390625,212.93555 v -1.25 H 47.695312 48 v 1.25 1.25 h -0.304688 -0.304687 z"
     id="path3299" />
  <path
     style="fill:#ffffff;stroke-width:0.00390625"
     d="m 47.390625,215.43555 v -1.25 H 47.695312 48 v 1.25 1.25 h -0.304688 -0.304687 z"
     id="path3338" />
  <path
     style="fill:#ffffff;stroke-width:0.00390625"
     d="m 47.390625,217.62305 v -0.9375 H 47.695312 48 v 0.9375 0.9375 h -0.304688 -0.304687 z"
     id="path3377" />
  <path
     style="fill:#ffffff;stroke-width:0.0625"
     d="M 47.4375,229.125 V 218.59375 H 47.71875 48 V 229.125 239.65625 H 47.71875 47.4375 Z"
     id="path3416" />
  <path
     style="fill:#ffffff;stroke-width:0.0110485"
     d="m 47.398251,198.66386 v -0.0939 h 0.298311 0.298311 v 0.0939 0.0939 h -0.298311 -0.298311 z"
     id="path3455" />
  <path
     style="fill:#ffffff;stroke-width:0.015625"
     d="m 47.390625,248.25 v -6.46094 H 47.695312 48 v 6.46094 6.46094 h -0.304688 -0.304687 z"
     id="path3494" />
  <path
     style="fill:#ffffff;stroke-width:0.00552427"
     d="m 47.392727,240.24505 v -1.54403 h 0.0221 0.0221 v 0.47785 0.47785 h 0.278976 0.278976 v 1.06618 1.06619 H 47.6938 47.392727 Z"
     id="path3533" />
  <path
     style="fill:#ffffff;stroke-width:0.00552427"
     d="m 47.392727,237.81714 v -0.88389 h 0.0221 0.0221 v 0.88389 0.88388 h -0.0221 -0.0221 z"
     id="path3572" />
  <path
     style="fill:#ffffff;stroke-width:0.00552427"
     d="m 47.392727,235.60743 v -1.32583 h 0.0221 0.0221 v 1.32583 1.32582 h -0.0221 -0.0221 z"
     id="path3611" />
  <path
     style="fill:#ffffff;stroke-width:0.00390625"
     d="m 47.390625,228.98437 v -1.61523 h 0.02344 0.02344 v 1.61523 1.61524 h -0.02344 -0.02344 z"
     id="path3650" />
  <path
     style="fill:#ffffff;stroke-width:0.00390625"
     d="m 47.390625,226.82617 v -0.54297 h 0.02344 0.02344 v 0.54297 0.54297 h -0.02344 -0.02344 z"
     id="path3689" />
  <path
     style="fill:#ffffff;stroke-width:0.0110485"
     d="m 47.436742,231.89788 c 0,-0.71705 0.0013,-1.00876 0.0029,-0.64825 0.0016,0.36051 0.0016,0.94719 -10e-7,1.30373 -0.0016,0.35653 -0.0029,0.0616 -0.0029,-0.65548 z"
     id="path3728" />
  <path
     style="fill:#ffffff;stroke-width:0.0110485"
     d="m 47.436135,230.84827 c 7e-6,-0.13977 0.0016,-0.19542 0.0035,-0.12368 0.0019,0.0717 0.0019,0.1861 -1.4e-5,0.25412 -0.0019,0.068 -0.0035,0.009 -0.0035,-0.13044 z"
     id="path3767" />
  <path
     style="fill:#ffffff;stroke-width:0.0110485"
     d="m 47.398251,231.89788 c 0,-1.14659 0.0019,-1.29821 0.01657,-1.29821 0.01464,0 0.01657,0.15162 0.01657,1.29821 0,1.14659 -0.0019,1.2982 -0.01657,1.2982 -0.01464,0 -0.01657,-0.15161 -0.01657,-1.2982 z"
     id="path3806" />
  <path
     style="fill:#ffffff;stroke-width:0.00390625"
     d="m 47.390625,231.11914 v -0.51953 h 0.01018 c 0.0081,0 0.0096,10e-4 0.0075,0.007 -0.0066,0.0169 -0.0096,0.20248 -0.0097,0.60156 -9.1e-5,0.28441 -0.0015,0.43066 -0.004,0.43066 -0.0026,0 -0.0039,-0.17578 -0.0039,-0.51953 z"
     id="path3845" />
  <path
     style="fill:#ffffff;stroke-width:0.00390625"
     d="m 47.428514,230.79016 c -0.0012,-0.0887 -0.0039,-0.16785 -0.006,-0.1759 -0.0035,-0.0138 -0.0032,-0.0146 0.0054,-0.0146 h 0.0092 l -0.0023,0.1748 c -0.0013,0.0962 -0.0027,0.1753 -0.0032,0.1759 -4.87e-4,6.1e-4 -0.0019,-0.0715 -0.0031,-0.16015 z"
     id="path3884" />
  <path
     style="fill:#ffffff;stroke-width:0.00390625"
     d="m 47.390625,225.58203 v -0.70117 h 0.02344 0.02344 v 0.70117 0.70117 h -0.02344 -0.02344 z"
     id="path3923" />
  <path
     style="fill:#ffffff;stroke-width:0.00390625"
     d="m 47.390625,224.41016 v -0.47071 h 0.02344 0.02344 v 0.47071 0.4707 h -0.02344 -0.02344 z"
     id="path3962" />
  <path
     style="fill:#ffffff;stroke-width:0.00390625"
     d="m 47.390625,223.41602 v -0.52344 h 0.02344 0.02344 v 0.52344 0.52343 h -0.02344 -0.02344 z"
     id="path4001" />
  <path
     style="fill:#ffffff;stroke-width:0.00390625"
     d="m 47.390625,220.23047 v -1.61524 h 0.02344 0.02344 v 1.61524 1.61523 h -0.02344 -0.02344 z"
     id="path4040" />
  <path
     style="fill:#ffffff;stroke-width:0.00390625"
     d="m 47.390625,218.58789 v -0.0273 H 47.695312 48 v 0.0156 0.0156 H 47.71875 47.4375 v 0.0117 0.0117 h -0.02344 -0.02344 z"
     id="path4079" />
  <path
     style="fill:#ffffff;stroke-width:0.00390625"
     d="m 47.390625,222.36914 v -0.52344 h 0.02344 0.02344 v 0.52344 0.52344 h -0.02344 -0.02344 z"
     id="path4118" />
  <path
     style="fill:#ffffff;stroke-width:0.00390625"
     d="m 47.390625,256.90625 v -1.61523 H 47.695312 48 v 1.61523 1.61523 h -0.304688 -0.304687 z"
     id="path4157" />
  <path
     style="fill:#ffffff;stroke-width:0.0110485"
     d="m 47.398251,255.00038 v -0.28174 h 0.298311 0.298311 v 0.28174 0.28174 h -0.298311 -0.298311 z"
     id="path4196" />
  <path
     style="fill:#ffffff;stroke-width:0.0220971"
     d="m 47.398251,264.56842 v -6.04355 h 0.298311 0.298311 v 6.04355 6.04355 h -0.298311 -0.298311 z"
     id="path4235" />
  <path
     style="fill:#ffffff;stroke-width:0.0220971"
     d="m 47.398251,275.03139 v -4.41942 h 0.298311 0.298311 v 4.41942 4.41942 h -0.298311 -0.298311 z"
     id="path4274" />
  <path
     style="fill:#ffffff;stroke-width:0.0220971"
     d="m 47.398251,284.75411 v -5.3033 h 0.298311 0.298311 v 5.3033 5.3033 h -0.298311 -0.298311 z"
     id="path4313" />
  <path
     style="fill:#ffffff;stroke-width:0.0220971"
     d="m 47.398251,294.47683 v -4.41942 h 0.298311 0.298311 v 4.41942 4.41942 h -0.298311 -0.298311 z"
     id="path4352" />
  <path
     style="fill:#ffffff;stroke-width:0.0220971"
     d="m 47.398251,303.31566 v -4.41941 h 0.298311 0.298311 v 4.41941 4.41942 h -0.298311 -0.298311 z"
     id="path4391" />
  <path
     style="fill:#ffffff;stroke-width:0.0220971"
     d="m 47.398251,312.1545 v -4.41942 h 0.298311 0.298311 v 4.41942 4.41942 h -0.298311 -0.298311 z"
     id="path4430" />
  <path
     style="fill:#ffffff;stroke-width:0.0220971"
     d="m 47.398251,322.7611 v -6.18718 h 0.298311 0.298311 v 6.18718 6.18718 h -0.298311 -0.298311 z"
     id="path4469" />
  <path
     style="fill:#ffffff;stroke-width:0.0220971"
     d="m 47.398251,333.3677 v -4.41942 h 0.298311 0.298311 v 4.41942 4.41942 h -0.298311 -0.298311 z"
     id="path4508" />
  <path
     style="fill:#ffffff;stroke-width:0.0220971"
     d="m 47.398251,342.20654 v -4.41942 h 0.298311 0.298311 v 4.41942 4.41941 h -0.298311 -0.298311 z"
     id="path4547" />
  <path
     style="fill:#ffffff;stroke-width:0.0220971"
     d="m 47.398251,352.81314 v -6.18719 h 0.298311 0.298311 v 6.18719 6.18718 h -0.298311 -0.298311 z"
     id="path4586" />
  <path
     style="fill:#ffffff;stroke-width:0.0220971"
     d="m 47.398251,365.18751 v -6.18719 h 0.298311 0.298311 v 6.18719 6.18718 h -0.298311 -0.298311 z"
     id="path4625" />
  <path
     style="fill:#ffffff;stroke-width:0.0220971"
     d="m 47.398251,379.32964 v -7.95495 h 0.298311 0.298311 v 7.95495 7.95495 h -0.298311 -0.298311 z"
     id="path4664" />
  <path
     style="fill:#ffffff;stroke-width:0.0220971"
     d="m 47.398251,393.47178 v -6.18719 h 0.298311 0.298311 v 6.18719 6.18718 h -0.298311 -0.298311 z"
     id="path4703" />
  <path
     style="fill:#ffffff;stroke-width:0.0220971"
     d="m 47.398251,399.93518 v -0.27622 h 0.298311 0.298311 v 0.17678 0.17678 h 13.313495 13.313494 v 0.0994 0.0994 H 61.010057 47.398251 Z"
     id="path4742" />
  <path
     style="fill:#ffffff;stroke-width:0.0078125"
     d="m 69.529297,400.2168 5.095703,-0.002 v -0.10155 -0.10155 l -5.095703,-0.002 c -4.352266,-0.002 -4.026282,-0.002 2.234375,-0.004 l 7.330078,-0.002 v 0.10937 0.10938 l -7.330078,-0.002 c -6.260657,-0.002 -6.586641,-0.002 -2.234375,-0.004 z"
     id="path4781" />
  <path
     style="fill:#ffffff;stroke-width:0.0078125"
     d="m 79.09375,400.11328 v -0.10937 h 6.382812 6.382813 v 0.10937 0.10938 H 85.476562 79.09375 Z"
     id="path4820" />
  <path
     style="fill:#ffffff;stroke-width:0.03125"
     d="m 91.875,400.10937 v -0.0937 h 13.1875 13.1875 v 0.0937 0.0937 H 105.0625 91.875 Z"
     id="path4859" />
  <path
     style="fill:#ffffff;stroke-width:0.00552427"
     d="m 116.04285,400.21415 c 0,-0.011 0.004,-0.0111 1.10486,-0.0111 h 1.10485 v -0.0939 -0.0939 h -1.10485 c -0.73289,0 -1.10486,-0.002 -1.10486,-0.006 0,-0.004 1.73094,-0.006 5.18177,-0.006 h 5.18177 v 0.11048 0.11049 h -5.18177 c -5.17809,0 -5.18177,-10e-6 -5.18177,-0.011 z"
     id="path4898" />
  <path
     style="fill:#ffffff;stroke-width:0.0220971"
     d="m 126.41743,400.11195 v -0.0994 h 6.98268 6.98268 v 0.0994 0.0994 h -6.98268 -6.98268 z"
     id="path4937" />
  <path
     style="fill:#ffffff;stroke-width:0.0220971"
     d="m 140.38279,400.11195 v -0.0994 h 12.80526 12.80527 v 0.0994 0.0994 h -12.80527 -12.80526 z"
     id="path4976" />
  <path
     style="fill:#ffffff;stroke-width:0.0220971"
     d="m 165.99332,400.11195 v -0.0994 h 14.76085 14.76085 v 0.0994 0.0994 h -14.76085 -14.76085 z"
     id="path5015" />
  <path
     style="fill:#ffffff;stroke-width:0.0220971"
     d="m 195.51502,400.11195 v -0.0994 h 12.76107 12.76107 v 0.0994 0.0994 h -12.76107 -12.76107 z"
     id="path5054" />
  <path
     style="fill:#ffffff;stroke-width:0.0220971"
     d="m 221.03716,400.11195 v -0.0994 h 13.42398 13.42398 v 0.0994 0.0994 h -13.42398 -13.42398 z"
     id="path5093" />
  <path
     style="fill:#ffffff;stroke-width:0.0220971"
     d="m 247.88512,400.11195 v -0.0994 h 12.07606 12.07606 v 0.0994 0.0994 h -12.07606 -12.07606 z"
     id="path5132" />
  <path
     style="fill:#ffffff;stroke-width:0.0220971"
     d="m 272.03724,400.11195 v -0.0994 h 12.75002 12.75001 v 0.0994 0.0994 h -12.75001 -12.75002 z"
     id="path5171" />
  <path
     style="fill:#ffffff;stroke-width:0.0220971"
     d="m 297.53727,400.11195 v -0.0994 h 14.09795 14.09794 v 0.0994 0.0994 h -14.09794 -14.09795 z"
     id="path5210" />
  <path
     style="fill:#ffffff;stroke-width:0.0220971"
     d="m 325.73316,400.11195 v -0.0994 h 14.7719 14.7719 v 0.0994 0.0994 h -14.7719 -14.7719 z"
     id="path5249" />
  <path
     style="fill:#ffffff;stroke-width:0.0220971"
     d="m 355.27696,400.11195 v -0.0994 h 11.4021 11.4021 v 0.0994 0.0994 h -11.4021 -11.4021 z"
     id="path5288" />
  <path
     style="fill:#ffffff;stroke-width:0.0220971"
     d="m 378.08116,400.11195 v -0.0994 h 8.72835 8.72835 v 0.0994 0.0994 h -8.72835 -8.72835 z"
     id="path5327" />
  <path
     style="fill:#ffffff;stroke-width:0.0220971"
     d="m 395.53786,400.11195 v -0.0994 h 14.09794 14.09794 v 0.0994 0.0994 H 409.6358 395.53786 Z"
     id="path5366" />
  <path
     style="fill:#ffffff;stroke-width:0.0220971"
     d="m 423.73374,400.11195 v -0.0994 h 10.73918 10.73919 v 0.0994 0.0994 h -10.73919 -10.73918 z"
     id="path5405" />
  <path
     style="fill:#ffffff;stroke-width:0.0220971"
     d="m 445.21211,400.11195 v -0.0994 h 9.40231 9.40231 v -5.63476 -5.63476 h 0.28726 0.28726 v 5.7342 5.73419 h -9.68957 -9.68957 z"
     id="path5444" />
  <path
     style="fill:#ffffff;stroke-width:0.0441942"
     d="m 464.04436,376.54541 c 0.003,-6.69045 0.0193,-12.07953 0.0362,-11.97574 0.0169,0.10378 0.0547,0.21272 0.0841,0.24207 0.0752,0.0752 0.19144,-0.007 0.23897,-0.16899 0.0346,-0.11808 0.10478,-2.58587 0.13369,-4.7033 0.006,-0.47398 0.0163,5.80546 0.0218,13.95431 l 0.01,14.8161 h -0.26516 -0.26517 z"
     id="path5483" />
  <path
     style="fill:#ffffff;stroke-width:0.03125"
     d="m 510.84424,406.14844 c 2.7e-4,-0.0129 0.0276,-0.21437 0.0608,-0.44774 0.23388,-1.64624 0.41498,-7.50159 0.56389,-18.23195 0.0618,-4.45333 0.0935,-6.81389 0.0935,-6.97656 l 8e-5,-0.16407 H 511.78125 512 l -7.6e-4,9.63282 c -7.5e-4,9.64941 -0.0173,11.6403 -0.1084,13.03906 -0.0694,1.06512 -0.20062,2.46618 -0.2847,3.03906 l -0.0195,0.13281 h -0.37145 c -0.2043,0 -0.37123,-0.0105 -0.37096,-0.0234 z"
     id="path5522" />
  <path
     style="fill:#ffffff;stroke-width:0.0220971"
     d="m 503.57051,425.56667 c 0,-0.007 0.11266,-0.19376 0.25035,-0.41472 1.23997,-1.98983 2.44492,-4.28084 3.4015,-6.4674 1.45615,-3.32848 2.55851,-6.8479 3.23916,-10.34143 0.0604,-0.30991 0.12778,-0.67037 0.14978,-0.80102 l 0.04,-0.23755 h 0.39464 0.39464 l -0.0121,0.0608 c -0.007,0.0334 -0.0376,0.21987 -0.0686,0.41432 -0.49727,3.11452 -1.39632,6.43329 -2.56159,9.45581 -1.06396,2.75977 -2.44892,5.54908 -3.96167,7.97879 l -0.22012,0.35356 -0.52298,0.006 c -0.28763,0.003 -0.52297,9e-5 -0.52297,-0.007 z"
     id="path5561" />
  <path
     style="fill:#ffffff;stroke-width:0.0625"
     d="m 510.69134,407.20312 c 0.002,-0.043 0.0378,-0.275 0.0793,-0.51562 l 0.0755,-0.4375 0.36578,-0.019 0.36579,-0.019 -0.0367,0.20647 c -0.0202,0.11356 -0.0553,0.35413 -0.0781,0.53459 l -0.0415,0.32813 h -0.36695 c -0.25394,0 -0.36577,-0.0241 -0.36311,-0.0781 z"
     id="path5600" />
  <path
     style="fill:#ffffff;stroke-width:0.0220971"
     d="m 496.72916,434.0807 c 1.26088,-1.26074 1.98964,-2.05276 2.98378,-3.24275 1.25822,-1.5061 2.57485,-3.29243 3.60346,-4.88898 l 0.23846,-0.37013 h 0.5269 0.52691 l -0.0713,0.11601 c -0.0392,0.0638 -0.28633,0.43918 -0.5492,0.83417 -2.00515,3.0129 -4.23318,5.67083 -6.87403,8.20039 l -0.41277,0.39538 h -0.50823 -0.50822 z"
     id="path5639" />
  <path
     style="fill:#ffffff;stroke-width:0.015625"
     d="m 489.89309,439.69706 c 1.94988,-1.29962 3.65902,-2.64106 5.43074,-4.2624 l 0.33164,-0.30349 0.51121,10e-4 c 0.28116,6.8e-4 0.51288,0.003 0.51492,0.005 0.002,0.002 -0.12763,0.12388 -0.28816,0.27075 -1.78524,1.63326 -3.64972,3.09916 -5.68921,4.47303 l -0.35047,0.23608 h -0.5455 -0.54551 z"
     id="path5678" />
  <path
     style="fill:#ffffff;stroke-width:0.015625"
     d="m 474.8125,446.2901 v -0.48001 l 0.15234,-0.0194 c 1.69644,-0.2159 3.18104,-0.48169 4.3849,-0.78505 1.40076,-0.35298 2.51229,-0.7594 3.69713,-1.35183 0.53401,-0.267 0.80879,-0.41774 2.03125,-1.1143 0.5543,-0.31584 1.26094,-0.7132 1.57032,-0.88302 0.88465,-0.48562 1.59054,-0.89874 2.32157,-1.35872 l 0.28701,-0.18059 h 0.54645 0.54644 l -0.17105,0.11153 c -2.84315,1.85382 -5.93872,3.43017 -9.09395,4.63091 -0.69029,0.26269 -1.12224,0.4164 -1.8896,0.67243 -1.48658,0.49599 -2.69067,0.83686 -4.32422,1.22416 l -0.0586,0.0139 z"
     id="path5717" />
  <path
     style="fill:#ffffff;stroke-width:0.03125"
     d="m 459.28125,447.40926 v -0.57512 l 0.32031,-0.0182 c 0.17617,-0.01 0.91797,-0.04 1.64844,-0.0666 5.13406,-0.18727 9.60553,-0.47967 12.67187,-0.82865 0.44688,-0.0509 0.83008,-0.0925 0.85157,-0.0925 0.0295,-5e-5 0.0391,0.11392 0.0391,0.46588 v 0.46596 l -0.28906,0.0667 c -1.36919,0.31613 -3.42832,0.66231 -5.02344,0.84454 -2.22922,0.25468 -3.59114,0.31238 -7.38281,0.31278 l -2.83594,2.9e-4 z"
     id="path5756" />
  <path
     style="fill:#ffffff;stroke-width:0.0441942"
     d="m 511.5778,379.79368 c 0.0271,-1.08549 0.18886,-21.34772 0.18997,-23.79856 l 7.6e-4,-1.66833 h 0.11049 0.11048 v 12.99309 12.99308 h -0.21233 -0.21234 z"
     id="path5795" />
  <path
     style="fill:#ffffff;stroke-width:0.0441942"
     d="m 511.78501,352.3712 c 0.0151,-1.07558 0.04,-5.05306 0.0553,-8.83884 0.0235,-5.7907 0.0375,-6.88324 0.0885,-6.88324 0.0512,0 0.0606,1.37717 0.0606,8.83883 v 8.83884 h -0.11595 -0.11594 z"
     id="path5834" />
  <path
     style="fill:#ffffff;stroke-width:0.0078125"
     d="m 511.85427,334.80664 c 0.003,-0.63271 0.007,-1.81133 0.009,-2.61914 0.002,-0.80781 0.006,-1.74385 0.009,-2.08008 l 0.005,-0.61133 h 0.0616 H 512 v 3.23047 3.23047 h -0.0754 -0.0754 z"
     id="path5873" />
  <path
     style="fill:#ffffff;stroke-width:0.0078125"
     d="m 511.84082,338.22461 c 0.002,-0.47158 0.005,-1.17471 0.008,-1.5625 l 0.005,-0.70508 h 0.0733 H 512 v 1.5625 c 0,1.03646 -0.003,1.5625 -0.008,1.5625 -0.005,0 -0.008,-0.13743 -0.008,-0.39648 -1.3e-4,-0.52873 -0.0134,-1.52134 -0.0236,-1.76051 -0.0103,-0.24237 -0.018,-0.29666 -0.0392,-0.2755 -0.0283,0.0283 -0.0444,0.5602 -0.0591,1.95788 -0.004,0.37597 -0.007,0.47461 -0.0149,0.47461 -0.008,0 -0.009,-0.16761 -0.007,-0.85742 z"
     id="path5912" />
  <path
     style="fill:#ffffff;stroke-width:0.00390625"
     d="m 511.87634,327.69629 c 10e-4,-0.27124 0.004,-0.99238 0.005,-1.60254 10e-4,-0.61016 0.003,-1.11509 0.004,-1.12207 l 0.002,-0.0127 h 0.0565 H 512 v 1.61524 1.61523 h -0.0631 -0.0631 z"
     id="path5951" />
  <path
     style="fill:#ffffff;stroke-width:0.00390625"
     d="m 511.87202,329.53711 c -5.1e-4,-0.13213 2.5e-4,-0.4894 0.002,-0.79395 l 0.003,-0.55371 h 0.0619 H 512 v 0.65235 0.65234 h -0.0625 -0.0625 l -10e-4,0.1416 c -7.1e-4,0.0935 -0.001,0.06 -0.002,-0.0986 z"
     id="path5990" />
  <path
     style="fill:#ffffff;stroke-width:0.00390625"
     d="m 511.88672,324.33398 v -0.625 h 0.0566 H 512 v 0.625 0.625 h -0.0566 -0.0566 z"
     id="path6029" />
  <path
     style="fill:#ffffff;stroke-width:0.00390625"
     d="m 511.88962,323.1084 c 5.2e-4,-0.33032 0.002,-0.82251 0.003,-1.09375 l 0.002,-0.49317 h 0.0523 H 512 v 1.09375 1.09375 h -0.0557 -0.0557 z"
     id="path6068" />
  <path
     style="fill:#ffffff;stroke-width:0.00390625"
     d="m 511.89584,320.73926 c 10e-4,-0.43023 0.003,-0.92241 0.003,-1.09375 v -0.31153 h 0.0508 H 512 v 1.09375 1.09375 h -0.0534 -0.0534 z"
     id="path6107" />
  <path
     style="fill:#ffffff;stroke-width:0.00390625"
     d="m 511.89974,319.00293 c 10e-4,-0.18208 0.003,-0.60396 0.003,-0.9375 v -0.60645 h 0.0488 H 512 v 0.9375 0.9375 h -0.0514 -0.0514 z"
     id="path6146" />
  <path
     style="fill:#ffffff;stroke-width:0.00390625"
     d="m 511.90365,317.16309 c 10e-4,-0.16275 0.003,-0.65494 0.003,-1.09375 v -0.79786 h 0.0469 H 512 v 1.09375 1.09375 h -0.0495 -0.0495 z"
     id="path6185" />
  <path
     style="fill:#ffffff;stroke-width:0.00390625"
     d="m 511.90761,315.24512 c 0.001,-0.0145 0.002,-0.36607 0.003,-0.78125 l 3e-5,-0.75489 h 0.0449 H 512 v 0.78125 0.78125 h -0.0474 -0.0474 z"
     id="path6224" />
  <path
     style="fill:#ffffff;stroke-width:0.00390625"
     d="m 511.91146,313.36621 c 0.001,-0.18852 0.003,-0.68071 0.003,-1.09375 v -0.75098 h 0.043 0.043 v 1.09375 1.09375 h -0.0456 -0.0456 z"
     id="path6263" />
  <path
     style="fill:#ffffff;stroke-width:0.00390625"
     d="m 511.91537,311.14584 c 10e-4,-0.20661 0.003,-0.62848 0.003,-0.9375 v -0.56186 h 0.041 0.041 v 0.9375 0.9375 h -0.0436 -0.0436 z"
     id="path6302" />
  <path
     style="fill:#ffffff;stroke-width:0.00390625"
     d="m 511.91927,308.97201 c 0.001,-0.37096 0.003,-0.86315 0.003,-1.09375 v -0.41928 h 0.0391 H 512 v 1.09375 1.09375 h -0.0417 -0.0417 z"
     id="path6341" />
  <path
     style="fill:#ffffff;stroke-width:0.00390625"
     d="m 511.92188,306.74121 c 0,-0.39477 0.001,-0.81665 0.003,-0.9375 l 0.003,-0.21973 h 0.0365 H 512 v 0.9375 0.9375 h -0.0391 -0.0391 z"
     id="path6380" />
  <path
     style="fill:#ffffff;stroke-width:0.00390625"
     d="m 511.92578,304.80273 v -0.78125 h 0.0371 H 512 v 0.78125 0.78125 h -0.0371 -0.0371 z"
     id="path6419" />
  <path
     style="fill:#ffffff;stroke-width:0.00390625"
     d="m 511.92578,303.67676 c 0,-0.1896 0.001,-0.7521 0.003,-1.25 l 0.003,-0.90528 h 0.0345 H 512 v 1.25 1.25 h -0.0371 -0.0371 z"
     id="path6458" />
  <path
     style="fill:#ffffff;stroke-width:0.00390625"
     d="m 511.92969,300.58398 v -0.9375 h 0.0351 H 512 v 0.9375 0.9375 h -0.0352 -0.0351 z"
     id="path6497" />
  <path
     style="fill:#ffffff;stroke-width:0.00390625"
     d="m 511.93099,298.99316 c 10e-4,-0.35932 0.003,-0.7812 0.003,-0.9375 v -0.28418 H 511.9668 512 v 0.9375 0.9375 h -0.0358 -0.0358 z"
     id="path6536" />
  <path
     style="fill:#ffffff;stroke-width:0.00390625"
     d="m 511.93359,296.52148 v -1.25 H 511.9668 512 v 1.25 1.25 h -0.0332 -0.0332 z"
     id="path6575" />
  <path
     style="fill:#ffffff;stroke-width:0.00390625"
     d="m 511.93359,294.33398 v -0.9375 H 511.9668 512 v 0.9375 0.9375 h -0.0332 -0.0332 z"
     id="path6614" />
  <path
     style="fill:#ffffff;stroke-width:0.00390625"
     d="m 511.93359,292.53189 c 0,-0.47552 0.001,-0.96771 0.003,-1.09375 l 0.003,-0.22916 h 0.0306 H 512 v 1.09375 1.09375 h -0.0332 -0.0332 z"
     id="path6653" />
  <path
     style="fill:#ffffff;stroke-width:0.00390625"
     d="m 511.9375,290.27148 v -0.9375 H 511.9687 512 v 0.9375 0.9375 h -0.0312 -0.0312 z"
     id="path6692" />
  <path
     style="fill:#ffffff;stroke-width:0.00390625"
     d="m 511.9375,288.24023 v -1.09375 H 511.9687 512 v 1.09375 1.09375 h -0.0312 -0.0312 z"
     id="path6731" />
  <path
     style="fill:#ffffff;stroke-width:0.00390625"
     d="m 511.9375,286.20898 v -0.9375 H 511.9687 512 v 0.9375 0.9375 h -0.0312 -0.0312 z"
     id="path6770" />
  <path
     style="fill:#ffffff;stroke-width:0.00390625"
     d="m 511.9375,284.33398 v -0.9375 H 511.9687 512 v 0.9375 0.9375 h -0.0312 -0.0312 z"
     id="path6809" />
  <path
     style="fill:#ffffff;stroke-width:0.00390625"
     d="m 511.9362,282.61426 c -10e-4,-0.43023 -0.003,-0.99273 -0.003,-1.25 v -0.46778 H 511.9668 512 v 1.25 1.25 h -0.0306 -0.0306 z"
     id="path6848" />
  <path
     style="fill:#ffffff;stroke-width:0.00390625"
     d="m 511.93359,279.95898 v -0.9375 H 511.9668 512 v 0.9375 0.9375 h -0.0332 -0.0332 z"
     id="path6887" />
  <path
     style="fill:#ffffff;stroke-width:0.00390625"
     d="m 511.93359,278.08398 v -0.9375 H 511.9668 512 v 0.9375 0.9375 h -0.0332 -0.0332 z"
     id="path6926" />
  <path
     style="fill:#ffffff;stroke-width:0.00390625"
     d="m 511.93359,276.57291 c 0,-0.31546 -10e-4,-0.73734 -0.003,-0.9375 l -0.003,-0.36393 H 511.9642 512 v 0.9375 0.9375 h -0.0332 -0.0332 z"
     id="path6965" />
  <path
     style="fill:#ffffff;stroke-width:0.00390625"
     d="m 511.92969,274.02148 v -1.25 h 0.0351 H 512 v 1.25 1.25 h -0.0352 -0.0351 z"
     id="path7004" />
  <path
     style="fill:#ffffff;stroke-width:0.00390625"
     d="m 511.92969,272.4108 c 0,-0.19837 -10e-4,-0.69056 -0.003,-1.09375 l -0.003,-0.73307 h 0.0378 H 512 v 1.09375 1.09375 h -0.0352 -0.0351 z"
     id="path7043" />
  <path
     style="fill:#ffffff;stroke-width:0.00390625"
     d="m 511.92578,269.64648 v -0.9375 h 0.0371 H 512 v 0.9375 0.9375 h -0.0371 -0.0371 z"
     id="path7082" />
  <path
     style="fill:#ffffff;stroke-width:0.00390625"
     d="m 511.92447,268.4834 c -10e-4,-0.12407 -0.003,-0.54595 -0.003,-0.9375 l -10e-6,-0.71192 h 0.0391 H 512 v 0.9375 0.9375 h -0.0365 -0.0365 z"
     id="path7121" />
  <path
     style="fill:#ffffff;stroke-width:0.00390625"
     d="m 511.92187,266.52018 c 0,-0.17259 -0.001,-0.66478 -0.003,-1.09375 l -0.003,-0.77995 h 0.0417 H 512 v 1.09375 1.09375 h -0.0391 -0.0391 z"
     id="path7160" />
  <path
     style="fill:#ffffff;stroke-width:0.00390625"
     d="m 511.91796,264.02051 c 0,-0.34429 -10e-4,-0.69585 -0.003,-0.78125 l -0.003,-0.15528 H 511.9564 512 v 0.78125 0.78125 h -0.041 -0.041 z"
     id="path7199" />
  <path
     style="fill:#ffffff;stroke-width:0.00390625"
     d="m 511.91406,262.14648 v -0.9375 h 0.043 0.043 v 0.9375 0.9375 h -0.043 -0.043 z"
     id="path7238" />
  <path
     style="fill:#ffffff;stroke-width:0.00390625"
     d="m 511.91273,261.1146 c -0.001,-0.0519 -0.003,-0.40347 -0.003,-0.78125 v -0.68687 h 0.0449 H 512 v 0.78125 0.78125 h -0.0423 -0.0423 z"
     id="path7277" />
  <path
     style="fill:#ffffff;stroke-width:0.00390625"
     d="m 511.90885,259.27084 c -10e-4,-0.20661 -0.003,-0.6988 -0.003,-1.09375 v -0.71811 h 0.0469 H 512 v 1.09375 1.09375 h -0.0443 -0.0443 z"
     id="path7316" />
  <path
     style="fill:#ffffff;stroke-width:0.00390625"
     d="m 511.90494,257.27441 c -0.001,-0.10151 -0.003,-0.52338 -0.003,-0.9375 l -1e-5,-0.75293 h 0.0488 H 512 v 0.9375 0.9375 h -0.0462 -0.0462 z"
     id="path7355" />
  <path
     style="fill:#ffffff;stroke-width:0.00390625"
     d="m 511.90101,255.54004 c -10e-4,-0.0242 -0.003,-0.30542 -0.003,-0.625 l -2e-5,-0.58106 h 0.0508 H 512 v 0.625 0.625 h -0.0482 -0.0482 z"
     id="path7394" />
  <path
     style="fill:#ffffff;stroke-width:0.00390625"
     d="m 511.89713,254.02279 c -10e-4,-0.17115 -0.003,-0.4524 -0.003,-0.625 v -0.31381 h 0.0527 H 512 v 0.625 0.625 h -0.0501 -0.0501 z"
     id="path7433" />
  <path
     style="fill:#ffffff;stroke-width:0.00390625"
     d="m 511.89453,252.81705 c 0,-0.14681 -10e-4,-0.42806 -0.003,-0.625 l -0.003,-0.35807 h 0.0553 H 512 v 0.625 0.625 h -0.0527 -0.0527 z"
     id="path7472" />
  <path
     style="fill:#ffffff;stroke-width:0.00390625"
     d="m 511.88932,251.09277 c -10e-4,-0.40766 -0.003,-0.89985 -0.003,-1.09375 v -0.35254 h 0.0566 H 512 v 1.09375 1.09375 h -0.054 -0.054 z"
     id="path7511" />
  <path
     style="fill:#ffffff;stroke-width:0.00390625"
     d="m 511.88528,249.47363 c -0.001,-0.0951 -0.003,-0.51694 -0.004,-0.9375 l -10e-4,-0.76465 h 0.06 0.06 v 0.9375 0.9375 h -0.0562 -0.0562 z"
     id="path7550" />
  <path
     style="fill:#ffffff;stroke-width:0.00390625"
     d="m 511.8789,247.45801 c 0,-0.17241 -10e-4,-0.59429 -0.003,-0.9375 l -0.003,-0.62403 H 511.936 512 v 0.9375 0.9375 h -0.0605 -0.0605 z"
     id="path7589" />
  <path
     style="fill:#ffffff;stroke-width:0.00390625"
     d="m 511.8736,245.53223 c -0.001,-0.20035 -0.003,-0.62222 -0.004,-0.9375 l -0.002,-0.57325 H 511.9338 512 v 0.9375 0.9375 h -0.062 -0.062 z"
     id="path7628" />
  <path
     style="fill:#ffffff;stroke-width:0.00390625"
     d="m 511.86588,243.37402 c -10e-4,-0.3561 -0.003,-0.77798 -0.003,-0.9375 v -0.29004 h 0.0684 H 512 v 0.9375 0.9375 h -0.0658 -0.0658 z"
     id="path7667" />
  <path
     style="fill:#ffffff;stroke-width:0.00390625"
     d="m 511.86187,241.96973 c -0.001,-0.0972 -0.003,-0.44878 -0.004,-0.78125 l -0.002,-0.6045 h 0.0719 H 512 v 0.78125 0.78125 h -0.0679 -0.0679 z"
     id="path7706" />
  <path
     style="fill:#ffffff;stroke-width:0.00390625"
     d="m 511.85405,239.85059 c -10e-4,-0.40337 -0.003,-0.82525 -0.004,-0.9375 l -0.002,-0.20411 h 0.0758 H 512 v 0.9375 0.9375 h -0.0718 -0.0718 z"
     id="path7745" />
  <path
     style="fill:#ffffff;stroke-width:0.00390625"
     d="m 511.84623,237.82324 c -10e-4,-0.48716 -0.004,-0.97934 -0.005,-1.09375 l -0.002,-0.20801 h 0.0806 H 512 v 1.09375 1.09375 h -0.0756 -0.0756 z"
     id="path7784" />
  <path
     style="fill:#ffffff;stroke-width:0.00390625"
     d="m 511.83984,236.23145 c 0,-0.15953 -10e-4,-0.37046 -0.003,-0.46875 l -0.003,-0.17872 h 0.0827 H 512 v 0.46875 0.46875 h -0.0801 -0.0801 v -0.29003 z"
     id="path7823" />
  <path
     style="fill:#ffffff;stroke-width:0.00390625"
     d="m 511.83448,234.90723 c -10e-4,-0.37222 -0.004,-0.7941 -0.005,-0.9375 l -0.002,-0.26075 h 0.0864 H 512 v 0.9375 0.9375 h -0.0815 -0.0815 z"
     id="path7862" />
  <path
     style="fill:#ffffff;stroke-width:0.00390625"
     d="m 511.82677,233.1377 c -0.001,-0.31421 -0.004,-0.8064 -0.005,-1.09375 l -0.003,-0.52247 h 0.0904 H 512 v 1.09375 1.09375 h -0.0853 -0.0853 z"
     id="path7901" />
  <path
     style="fill:#ffffff;stroke-width:0.00390625"
     d="m 511.81888,231.27832 c -10e-4,-0.13374 -0.003,-0.4853 -0.005,-0.78125 l -0.002,-0.53809 h 0.094 H 512 v 0.78125 0.78125 h -0.0894 -0.0894 z"
     id="path7940" />
  <path
     style="fill:#ffffff;stroke-width:0.00390625"
     d="m 511.8111,229.62012 c -0.001,-0.18638 -0.003,-0.5753 -0.004,-0.86426 -10e-4,-0.28897 -0.003,-0.62866 -0.004,-0.75488 l -0.002,-0.2295 h 0.0989 H 512 v 1.09375 1.09375 h -0.0932 -0.0932 z"
     id="path7979" />
  <path
     style="fill:#ffffff;stroke-width:0.00390625"
     d="m 511.79932,227.21582 c -0.001,-0.30561 -0.004,-0.65718 -0.005,-0.78125 l -0.002,-0.22559 H 511.89598 512 v 0.78125 0.78125 h -0.0991 -0.0991 z"
     id="path8018" />
  <path
     style="fill:#ffffff;stroke-width:0.00390625"
     d="m 511.79154,225.70996 c -10e-4,-0.27446 -0.004,-0.62602 -0.005,-0.78125 l -0.002,-0.28223 H 511.89206 512 v 0.78125 0.78125 h -0.10299 -0.10298 z"
     id="path8057" />
  <path
     style="fill:#ffffff;stroke-width:0.00390625"
     d="m 511.78383,224.29785 c -0.001,-0.19175 -0.003,-0.60264 -0.005,-0.91308 -0.001,-0.31045 -0.003,-0.57544 -0.004,-0.58887 l -0.002,-0.0244 H 511.88661 512 v 0.9375 0.9375 h -0.1068 -0.1068 z"
     id="path8096" />
  <path
     style="fill:#ffffff;stroke-width:0.00390625"
     d="m 511.77205,222.18262 c -10e-4,-0.32388 -0.004,-0.67544 -0.005,-0.78125 l -0.003,-0.19239 H 511.88224 512 v 0.78125 0.78125 h -0.1127 -0.11269 z"
     id="path8135" />
  <path
     style="fill:#ffffff;stroke-width:0.00390625"
     d="m 511.76565,221.10645 c 3e-5,-0.13838 -0.007,-1.33518 -0.009,-1.57813 l -0.002,-0.19434 H 511.87718 512 v 0.9375 0.9375 h -0.11719 -0.11719 z"
     id="path8174" />
  <path
     style="fill:#ffffff;stroke-width:0.00390625"
     d="m 511.75393,219.19238 c 2e-5,-0.17087 -0.007,-1.31811 -0.009,-1.56054 l -0.002,-0.17286 H 511.87137 512 v 0.9375 0.9375 h -0.12305 -0.12304 z"
     id="path8213" />
  <path
     style="fill:#ffffff;stroke-width:0.0441942"
     d="m 511.75214,215.10409 c -0.0148,-1.29433 -0.0378,-3.96422 -0.0511,-5.93307 -0.0406,-6.01638 -0.18393,-20.04038 -0.21348,-20.89279 l -0.0149,-0.43089 h 0.25844 0.25844 v 14.80504 14.80505 h -0.10521 -0.10522 z"
     id="path8252" />
  <path
     style="fill:#ffffff;stroke-width:0.00390625"
     d="m 511.74077,216.97559 c -10e-4,-0.26587 -0.004,-0.56822 -0.005,-0.67188 l -0.002,-0.18848 h 0.0142 c 0.0141,0 0.0142,1.3e-4 0.0143,0.0166 3e-5,0.009 0.004,0.30488 0.008,0.65722 0.004,0.35235 0.008,0.64722 0.008,0.65528 l 6e-5,0.0146 h -0.017 -0.017 z"
     id="path8291" />
  <path
     style="fill:#ffffff;stroke-width:0.00390625"
     d="m 511.73296,215.7334 c -10e-4,-0.21001 -0.003,-0.44644 -0.004,-0.52539 l -0.002,-0.14356 h 0.0116 0.0116 l 9e-5,0.0381 c 5e-5,0.0209 0.003,0.24375 0.006,0.49512 0.003,0.25136 0.006,0.47065 0.006,0.4873 l 9e-5,0.0303 h -0.0132 -0.0132 z"
     id="path8330" />
  <path
     style="fill:#ffffff;stroke-width:0.00390625"
     d="m 511.72465,214.59668 c -0.002,-0.25728 -0.005,-0.74953 -0.007,-1.0939 -0.004,-0.62514 -0.004,-0.62612 0.003,-0.625 0.008,0.001 0.008,0.006 0.0123,0.50503 0.007,0.7386 0.0127,1.33723 0.0155,1.52051 l 0.002,0.16113 h -0.0117 -0.0117 z"
     id="path8447" />
  <path
     style="fill:#ffffff;stroke-width:0.00390625"
     d="m 511.70962,212.45357 c -10e-4,-0.23443 -0.004,-0.58663 -0.005,-0.78267 -0.002,-0.33094 -0.002,-0.35645 0.004,-0.35645 0.005,0 0.007,0.004 0.007,0.0147 5e-5,0.008 0.003,0.29942 0.006,0.64746 0.003,0.34805 0.006,0.69282 0.006,0.76615 8e-5,0.12611 -3.1e-4,0.13343 -0.007,0.13521 -0.007,0.002 -0.007,-0.0134 -0.01,-0.42435 z"
     id="path8486" />
  <path
     style="fill:#ffffff;stroke-width:0.00390625"
     d="m 511.70171,211.25488 c -10e-4,-0.0328 -0.004,-0.36191 -0.006,-0.73144 -0.002,-0.36953 -0.005,-0.7646 -0.007,-0.87793 -0.002,-0.18702 -0.002,-0.20606 0.004,-0.20606 0.004,0 0.007,0.005 0.008,0.0166 10e-4,0.009 0.004,0.33038 0.006,0.71387 0.002,0.3835 0.005,0.7979 0.007,0.9209 0.002,0.20092 0.002,0.22363 -0.004,0.22363 -0.005,0 -0.006,-0.009 -0.008,-0.0596 z"
     id="path8525" />
  <path
     style="fill:#ffffff;stroke-width:0.00390625"
     d=""
     id="path8564" />
  <path
     style="fill:#ffffff;stroke-width:0.00390625"
     d="m 511.68744,209.40137 c -3e-5,-0.0209 -0.003,-0.34658 -0.006,-0.72364 -0.0118,-1.43615 -0.0118,-1.42578 -0.005,-1.42578 0.009,0 0.01,0.0685 0.0167,1.07227 0.008,1.10443 0.008,1.11523 -4e-5,1.11523 -0.005,0 -0.006,-0.007 -0.006,-0.0381 z"
     id="path8603" />
  <path
     style="fill:#ffffff;stroke-width:0.00390625"
     d=""
     id="path8642" />
  <path
     style="fill:#ffffff;stroke-width:0.00390625"
     d="m 511.67582,207.252 c -0.005,-0.003 -0.006,-0.0782 -0.0103,-0.5907 -0.002,-0.32289 -0.005,-0.67365 -0.007,-0.77946 -0.002,-0.18301 -0.002,-0.19239 0.005,-0.19239 0.007,0 0.007,0.0114 0.01,0.2002 0.004,0.31247 0.0112,1.31048 0.01,1.33972 -10e-4,0.0221 -0.002,0.0257 -0.007,0.0226 z"
     id="path8681" />
  <path
     style="fill:#ffffff;stroke-width:0.00390625"
     d="m 511.66797,205.69401 c 0,-0.003 -0.003,-0.005 -0.006,-0.005 -0.005,0 -0.006,-0.0136 -0.006,-0.0986 -4e-5,-0.0542 -0.003,-0.37285 -0.006,-0.70801 -0.007,-0.80233 -0.008,-0.75586 10e-4,-0.75586 0.007,0 0.007,0.0134 0.01,0.33496 10e-4,0.18423 0.005,0.53682 0.007,0.78354 0.002,0.24672 0.003,0.4496 0.002,0.45085 -10e-4,0.001 -0.002,2.2e-4 -0.002,-0.002 z"
     id="path8720" />
  <path
     style="fill:#ffffff;stroke-width:0.00390625"
     d="m 511.65625,204.13756 c 0,-0.006 -0.003,-0.0118 -0.006,-0.0137 -0.006,-0.003 -0.007,-0.10602 -0.0155,-1.01875 -0.0114,-1.22834 -0.0112,-1.16571 -0.004,-1.16571 0.004,0 0.006,0.01 0.008,0.0439 10e-4,0.0242 0.005,0.3832 0.009,0.79785 0.004,0.41465 0.008,0.89102 0.009,1.05859 0.002,0.16758 0.002,0.30542 0.002,0.30632 -6.9e-4,8.9e-4 -10e-4,-0.003 -10e-4,-0.009 z"
     id="path8759" />
  <path
     style="fill:#ffffff;stroke-width:0.00390625"
     d="m 511.62941,201.93587 c -0.004,-0.003 -0.007,-0.12487 -0.0125,-0.73131 -0.009,-0.92741 -0.009,-0.82761 3.2e-4,-0.82761 0.008,0 0.008,0.003 0.008,0.083 -10e-6,0.0457 0.003,0.36514 0.006,0.70996 0.007,0.69802 0.007,0.77101 -0.002,0.76595 z"
     id="path8798" />
  <path
     style="fill:#ffffff;stroke-width:0.00390625"
     d="m 511.61424,200.37372 c -0.004,-0.002 -0.007,-0.16705 -0.0125,-0.77435 -0.004,-0.42418 -0.009,-0.84463 -0.01,-0.93433 -0.002,-0.16285 -0.002,-0.16309 0.006,-0.16309 0.007,0 0.008,0.002 0.008,0.0244 0,0.0472 0.0153,1.5884 0.017,1.71875 9.8e-4,0.0725 6.3e-4,0.13181 -7.8e-4,0.13177 -10e-4,-3e-5 -0.005,-0.001 -0.007,-0.003 z"
     id="path8837" />
  <path
     style="fill:#ffffff;stroke-width:0.00390625"
     d=""
     id="path8876" />
  <path
     style="fill:#ffffff;stroke-width:0.00390625"
     d="m 511.58978,198.4502 c -4e-5,-0.0285 -0.004,-0.36465 -0.008,-0.74708 -0.01,-0.86289 -0.01,-0.76367 0,-0.76367 0.007,0 0.008,0.003 0.008,0.0303 4e-5,0.0166 0.004,0.3625 0.008,0.76855 0.004,0.40606 0.008,0.744 0.008,0.75098 6e-5,0.0101 -0.002,0.0127 -0.008,0.0127 -0.007,0 -0.008,-0.003 -0.008,-0.0517 z"
     id="path8915" />
  <path
     style="fill:#ffffff;stroke-width:0.00390625"
     d="m 511.5791,196.93623 c -0.004,-0.002 -0.007,-0.14985 -0.0127,-0.68256 -0.004,-0.3737 -0.008,-0.72384 -0.008,-0.77808 -4e-5,-0.096 1.7e-4,-0.0986 0.008,-0.0986 0.007,0 0.008,0.003 0.008,0.0654 4e-5,0.036 0.004,0.37744 0.008,0.75879 0.009,0.81473 0.009,0.7383 0.005,0.73822 -0.002,-3e-5 -0.005,-0.001 -0.008,-0.003 z"
     id="path8954" />
  <path
     style="fill:#ffffff;stroke-width:0.00390625"
     d="m 511.55715,195.36035 c -10e-4,-0.009 -0.006,-0.36904 -0.0101,-0.7998 -0.005,-0.43076 -0.009,-0.84517 -0.0107,-0.9209 l -0.002,-0.1377 h 0.0104 0.0104 v 0.0631 c 0,0.0916 0.0148,1.5074 0.0174,1.67225 0.002,0.13691 0.002,0.13965 -0.005,0.13965 -0.006,0 -0.008,-0.003 -0.01,-0.0166 z"
     id="path8993" />
  <path
     style="fill:#ffffff;stroke-width:0.00390625"
     d="m 511.5335,193.34863 c -10e-4,-0.0843 -0.007,-0.51367 -0.0122,-0.9541 -0.005,-0.44043 -0.0114,-0.92119 -0.0135,-1.06836 -0.005,-0.36091 -0.006,-0.32422 0.006,-0.32422 0.009,0 0.01,0.002 0.0115,0.0283 10e-4,0.0156 0.005,0.29375 0.008,0.61817 0.0121,1.15647 0.0173,1.62272 0.0192,1.7373 l 0.002,0.11621 h -0.009 -0.009 z"
     id="path9032" />
  <path
     style="fill:#ffffff;stroke-width:0.00390625"
     d=""
     id="path9071" />
  <path
     style="fill:#ffffff;stroke-width:0.00390625"
     d="m 511.51119,190.99935 c -0.007,-0.002 -0.008,-0.0422 -0.0153,-0.58919 -0.002,-0.17188 -0.007,-0.49356 -0.01,-0.71485 -0.003,-0.22129 -0.006,-0.43969 -0.006,-0.48535 l -3e-5,-0.083 h 0.009 0.009 l 0.002,0.0752 c 10e-4,0.0414 0.004,0.22549 0.006,0.40918 0.002,0.18369 0.007,0.53349 0.01,0.77734 0.006,0.5051 0.007,0.61347 0.003,0.61283 -0.002,-2.5e-4 -0.006,-0.001 -0.009,-0.002 z"
     id="path9110" />
  <path
     style="fill:#ffffff;stroke-width:0.00390625"
     d="m 511.99219,189.00781 v -1.16211 h -0.26039 -0.26038 l 0.003,0.0889 c 10e-4,0.0489 0.005,0.16445 0.008,0.25684 0.005,0.15594 0.01,0.35976 0.0161,0.77082 l 0.003,0.16535 -0.0113,-0.001 -0.0113,-0.001 -0.003,-0.20313 c -0.008,-0.58756 -0.0265,-1.86751 -0.0279,-1.92089 l -0.002,-0.0615 H 511.72317 512 v 1.61524 c 0,1.07422 -10e-4,1.61523 -0.004,1.61523 -0.003,0 -0.004,-0.38997 -0.004,-1.16211 z"
     id="path9149" />
  <path
     style="fill:#ffffff;stroke-width:0.00390625"
     d="m 511.44531,186.88131 c 0,-0.0608 -0.0114,-0.80577 -0.0215,-1.40096 -0.003,-0.19128 -0.006,-0.3631 -0.006,-0.38184 v -0.0341 H 511.70898 512 v 0.9375 0.9375 h -0.27734 -0.27735 z"
     id="path9188" />
  <path
     style="fill:#ffffff;stroke-width:0.00390625"
     d="m 511.41652,184.99316 c -10e-4,-0.0392 -0.003,-0.13808 -0.004,-0.21972 -0.005,-0.32637 -0.029,-1.72818 -0.0313,-1.80957 l -0.002,-0.0869 h 0.3099 H 512 v 1.09375 1.09375 h -0.29059 -0.29059 z"
     id="path9227" />
  <path
     style="fill:#ffffff;stroke-width:0.00390625"
     d="m 511.37891,182.85783 c 0,-0.0298 -0.0187,-1.01418 -0.0273,-1.44181 -0.004,-0.21163 -0.008,-0.39136 -0.008,-0.39942 l -1e-5,-0.0147 H 511.67187 512 v 0.9375 0.9375 h -0.31055 -0.31054 z"
     id="path9266" />
  <path
     style="fill:#ffffff;stroke-width:0.00390625"
     d="m 511.34216,180.91895 c -10e-4,-0.0457 -0.008,-0.33877 -0.0142,-0.65137 -0.006,-0.3126 -0.0161,-0.75815 -0.0214,-0.99011 -0.005,-0.23196 -0.01,-0.43104 -0.01,-0.44238 v -0.0206 H 511.64844 512 v 1.09375 1.09375 h -0.32769 -0.3277 z"
     id="path9305" />
  <path
     style="fill:#ffffff;stroke-width:0.00390625"
     d="m 511.2954,178.7627 c -10e-4,-0.0285 -0.003,-0.0983 -0.004,-0.15528 -0.004,-0.19023 -0.0211,-0.89161 -0.0237,-0.96777 l -0.003,-0.0752 H 511.63239 512 v 0.625 0.625 h -0.35116 -0.35116 z"
     id="path9344" />
  <path
     style="fill:#ffffff;stroke-width:0.00390625"
     d="m 511.26562,177.55485 c 0,-0.0166 -0.0309,-1.1581 -0.0371,-1.37126 -0.003,-0.11172 -0.009,-0.32177 -0.0136,-0.46679 -0.004,-0.14502 -0.009,-0.28081 -0.01,-0.30176 l -0.002,-0.0381 h 0.39585 0.39586 l 0.003,0.45182 c 10e-4,0.2485 0.003,0.74069 0.003,1.09375 v 0.64193 h -0.36719 -0.36719 z"
     id="path9383" />
  <path
     style="fill:#ffffff;stroke-width:0.00390625"
     d="m 511.20312,175.3542 c 0,-0.0407 -0.0265,-0.83322 -0.041,-1.22725 -0.0179,-0.48617 -0.0214,-0.57839 -0.0229,-0.60058 l -0.002,-0.0244 h 0.39765 0.39766 l 0.002,0.0283 c 0.003,0.0324 0.015,0.30253 0.0237,0.51856 0.0165,0.4081 0.0333,1.03509 0.0333,1.24117 v 0.087 h -0.39453 -0.39454 z"
     id="path9422" />
  <path
     style="fill:#ffffff;stroke-width:0.00390625"
     d="m 511.13338,173.38379 c -0.0206,-0.51551 -0.0533,-1.19065 -0.0768,-1.58457 -0.005,-0.0889 -0.01,-0.16408 -0.01,-0.16699 0,-0.004 0.0628,-0.005 0.37672,-0.005 h 0.37671 l 0.002,0.0166 c 0.0104,0.0757 0.0661,0.7886 0.0898,1.14942 0.0151,0.22876 0.0412,0.67379 0.0412,0.70159 0,0.007 -0.0101,0.007 -0.39774,0.007 h -0.39775 z"
     id="path9461" />
  <path
     style="fill:#ffffff;stroke-width:0.00390625"
     d="m 511.0452,171.60547 c -0.001,-0.0129 -0.005,-0.0656 -0.008,-0.11719 -0.0227,-0.3523 -0.0502,-0.68211 -0.0744,-0.89258 -0.0242,-0.21036 -0.0894,-0.68903 -0.14061,-1.03271 -0.01,-0.0642 -0.0174,-0.11824 -0.0174,-0.12012 0,-0.002 0.16301,-0.003 0.37448,-0.003 h 0.37448 l 0.004,0.0322 c 0.0713,0.54089 0.0978,0.75588 0.14131,1.14551 0.036,0.32271 0.10158,0.97142 0.10158,1.00552 0,0.003 -0.11296,0.004 -0.37675,0.005 l -0.37674,0.001 z"
     id="path9500" />
  <path
     style="fill:#ffffff;stroke-width:0.00390625"
     d="m 510.80301,169.43457 c -7.8e-4,-0.003 -0.0141,-0.0875 -0.0296,-0.18848 -0.0685,-0.4472 -0.17568,-1.06744 -0.2676,-1.54882 -0.0305,-0.15964 -0.0835,-0.42877 -0.0864,-0.43848 -0.002,-0.006 0.0185,-0.007 0.3905,-0.007 h 0.39253 l 0.002,0.0108 c 0.005,0.0243 0.0428,0.23586 0.0684,0.38183 0.0972,0.55532 0.17436,1.04363 0.25012,1.58203 0.0151,0.10742 0.0281,0.19927 0.0289,0.2041 l 0.001,0.009 h -0.37458 c -0.2963,0 -0.37488,-0.001 -0.37601,-0.005 z"
     id="path9539" />
  <path
     style="fill:#ffffff;stroke-width:0.00390625"
     d="m 510.41022,167.21094 c -0.0881,-0.44803 -0.24863,-1.17346 -0.3792,-1.7138 -0.0149,-0.0617 -0.0271,-0.11402 -0.0271,-0.11621 0,-0.003 0.13355,-0.004 0.40729,-0.004 h 0.40729 l 0.0285,0.12793 c 0.10857,0.48665 0.22182,1.03709 0.31675,1.53956 l 0.0381,0.20165 -0.30309,0.003 c -0.1667,0.002 -0.34292,0.003 -0.3916,0.004 l -0.0885,0.001 z"
     id="path9578" />
  <path
     style="fill:#ffffff;stroke-width:0.00552427"
     d="m 509.93047,165.08677 c -0.0756,-0.30255 -0.16808,-0.65653 -0.24328,-0.93165 l -0.0434,-0.15883 h 0.4203 0.4203 l 0.0262,0.10358 c 0.0889,0.35144 0.20296,0.82415 0.28732,1.19048 l 0.0188,0.0815 h -0.16673 c -0.0917,0 -0.27465,0.002 -0.40656,0.004 l -0.23983,0.004 z"
     id="path9617" />
  <path
     style="fill:#ffffff;stroke-width:0.0078125"
     d="m 509.57484,163.74795 c -0.39041,-1.38892 -0.92896,-3.00212 -1.41489,-4.23818 -0.005,-0.0129 0.0199,-0.0137 0.45925,-0.0137 h 0.46461 l 0.0526,0.14649 c 0.50972,1.41823 0.92937,2.76244 1.27741,4.09179 0.0349,0.13321 0.0649,0.24659 0.0667,0.25196 0.003,0.008 -0.084,0.01 -0.41637,0.01 l -0.41968,-1e-4 z"
     id="path9656" />
  <path
     style="fill:#ffffff;stroke-width:0.00552427"
     d="m 508.11697,159.40132 c -0.36243,-0.93062 -0.73974,-1.81429 -1.20762,-2.8283 l -0.0185,-0.0401 0.4978,0.001 0.49779,0.001 0.0549,0.1243 c 0.36576,0.82854 0.72988,1.72564 1.05718,2.60469 l 0.0843,0.2265 -0.45669,0.003 c -0.25117,0.002 -0.45943,0.005 -0.46279,0.007 -0.004,0.003 -0.02,-0.0317 -0.0464,-0.0994 z"
     id="path9695" />
  <path
     style="fill:#ffffff;stroke-width:0.03125"
     d="m 506.70312,156.10405 c -0.23267,-0.50867 -0.9909,-1.97344 -1.42077,-2.74468 -0.97924,-1.75689 -2.215,-3.67013 -3.41516,-5.28747 -0.25352,-0.34164 -0.46094,-0.62765 -0.46094,-0.63559 0,-0.008 0.25846,-0.0144 0.57436,-0.0144 h 0.57437 l 0.48333,0.67969 c 1.4015,1.97088 2.46239,3.69645 3.53401,5.74815 0.4438,0.8497 1.27143,2.57236 1.27143,2.64641 0,0.0107 -0.21445,0.0191 -0.47656,0.0187 l -0.47657,-8.3e-4 -0.1875,-0.40991 z"
     id="path9734" />
  <path
     style="fill:#ffffff;stroke-width:0.015625"
     d="m 501.26562,147.28419 c -0.79975,-1.04427 -1.94104,-2.39446 -2.88832,-3.417 -2.42051,-2.61284 -5.23688,-5.06172 -8.04136,-6.99211 -0.0859,-0.0592 -0.17302,-0.12029 -0.19352,-0.13585 -0.0361,-0.0274 -0.015,-0.0283 0.69532,-0.028 l 0.73257,3.1e-4 0.34778,0.24933 c 3.97667,2.85101 7.48809,6.28051 10.4469,10.20317 l 0.18268,0.24219 -0.56348,0.008 c -0.39824,0.006 -0.56675,0.013 -0.57462,0.0257 -0.007,0.0109 -0.0631,-0.05 -0.14395,-0.15555 z"
     id="path9773" />
  <path
     style="fill:#ffffff;stroke-width:0.0078125"
     d="m 490.02344,136.66614 c -0.26098,-0.18254 -0.93069,-0.62307 -1.375,-0.90448 -0.62298,-0.39456 -1.42601,-0.87626 -1.98047,-1.18797 l -0.11719,-0.0659 0.7913,-0.002 0.7913,-0.002 0.14229,0.0834 c 0.97155,0.56919 2.07915,1.2769 3.0242,1.93234 l 0.26471,0.18358 -0.71159,0.004 c -0.55461,0.003 -0.71375,0.006 -0.72135,0.0137 -0.005,0.005 -0.0117,0.009 -0.0141,0.009 -0.002,-4.1e-4 -0.0447,-0.029 -0.0941,-0.0636 z"
     id="path9812" />
  <path
     style="fill:#ffffff;stroke-width:0.03125"
     d="m 486.04687,134.21582 c -0.61077,-0.34216 -2.15715,-1.12246 -2.89062,-1.4586 -3.33912,-1.53027 -6.83276,-2.65461 -10.32403,-3.32252 -0.87359,-0.16712 -1.60103,-0.24029 -3.3791,-0.3399 -1.2108,-0.0678 -4.47971,-0.20311 -4.92968,-0.204 l -0.0859,-1.8e-4 v -0.44216 -0.44216 l 0.72656,0.0215 c 6.87902,0.20342 13.17351,1.68617 19.24219,4.53276 1.04893,0.49201 3.47664,1.76711 3.60781,1.89491 0.0182,0.0177 -0.26543,0.0278 -0.73437,0.0259 l -0.76407,-0.003 -0.46875,-0.2626 z"
     id="path9851" />
  <path
     style="fill:#ffffff;stroke-width:0.0110485"
     d="m 463.96701,128.88571 c -1.59394,-0.0522 -5.34051,-0.13831 -7.87761,-0.18105 -0.55906,-0.009 -1.09229,-0.02 -1.18496,-0.0236 l -0.16849,-0.006 v -0.33581 -0.33582 h 4.85031 4.85031 v 0.44747 0.44746 l -0.1022,-0.002 c -0.0562,-9.4e-4 -0.22152,-0.006 -0.36736,-0.0104 z"
     id="path9890" />
  <path
     style="fill:#ffffff;stroke-width:0.0441942"
     d="m 451.84123,128.62348 c -3.7662,-0.0612 -9.61508,-0.12787 -13.32454,-0.1518 -2.01747,-0.013 -3.9714,-0.0352 -4.34208,-0.0492 l -0.67396,-0.0256 v -0.19422 -0.19423 h 10.6066 10.6066 v 0.33146 0.33146 l -0.40879,-0.007 c -0.22484,-0.004 -1.33356,-0.0223 -2.46383,-0.0406 z"
     id="path9929" />
  <path
     style="fill:#ffffff;stroke-width:0.015625"
     d="m 430.11719,128.41298 c -4.93257,-0.0362 -11.60628,-0.07 -18.26563,-0.0924 -2.62969,-0.009 -5.63379,-0.0205 -6.67578,-0.0257 l -1.89453,-0.01 v -0.13872 -0.13871 h 14.65625 14.65625 v 0.21094 0.21094 l -0.45703,-0.003 c -0.25137,-0.001 -1.16016,-0.008 -2.01953,-0.0141 z"
     id="path9968" />
  <path
     style="fill:#ffffff;stroke-width:0.015625"
     d="m 433.17578,128.4336 -0.58203,-0.004 v -0.21075 -0.21075 h 0.45312 0.45313 v 0.19436 0.19435 l 0.0664,0.009 c 0.0365,0.005 0.27031,0.0149 0.51953,0.022 l 0.45312,0.0128 -0.39062,-0.001 c -0.21485,-7e-4 -0.65254,-0.003 -0.97266,-0.006 z"
     id="path10007" />
  <path
     style="fill:#ffffff;stroke-width:0.00390625"
     d="m 402.2207,128.29457 c -1.74015,-0.005 -4.54517,-0.0114 -5.00293,-0.0114 l -0.43652,3e-5 v -0.14062 -0.14063 l 3.66504,9.6e-4 c 2.01577,5.3e-4 3.47827,10e-4 3.25,0.002 l -0.41504,0.001 v 0.14061 0.14061 h 0.12631 c 0.26084,0 0.70181,0.005 0.70181,0.008 0,0.004 -0.36896,0.003 -1.88867,-9.9e-4 z"
     id="path10046" />
  <path
     style="fill:#ffffff;stroke-width:0.00390625"
     d="m 395.61621,128.28027 -0.9873,-9.9e-4 v -0.13866 -0.13867 h 1.07617 1.07617 v 0.14063 0.14062 l -0.0889,-9.7e-4 c -0.0489,-5.3e-4 -0.53315,-0.001 -1.07617,-0.002 z"
     id="path10085" />
  <path
     style="fill:#ffffff;stroke-width:0.0110485"
     d="m 390.03016,128.26745 c -2.26661,-0.004 -5.09932,-0.008 -6.29491,-0.009 l -2.1738,-0.002 v -0.12706 -0.12706 h 6.52969 6.52969 v 0.13811 0.1381 l -0.23479,-0.002 c -0.12913,-0.001 -2.08927,-0.005 -4.35588,-0.009 z"
     id="path10124" />
  <path
     style="fill:#ffffff;stroke-width:0.0441942"
     d="m 378.07011,128.24048 c 0.63805,-0.007 1.68214,-0.007 2.32019,0 0.63806,0.007 0.11601,0.0125 -1.1601,0.0125 -1.2761,0 -1.79815,-0.006 -1.16009,-0.0125 z"
     id="path10163" />
  <path
     style="fill:#ffffff;stroke-width:0.0441942"
     d="m 361.68512,128.11891 v -0.11049 h 9.92159 9.92159 v 0.11049 0.11049 h -9.92159 -9.92159 z"
     id="path10202" />
  <path
     style="fill:#ffffff;stroke-width:0.0110485"
     d="m 348.81357,128.12996 v -0.12706 h 6.43577 6.43578 v 0.11601 0.11601 h 3.92776 c 2.61113,0 3.92775,0.004 3.92775,0.0111 0,0.007 -3.46187,0.0111 -10.36353,0.0111 h -10.36353 z"
     id="path10241" />
  <path
     style="fill:#ffffff;stroke-width:0.0078125"
     d="m 341.52344,128.12891 v -0.125 h 3.64453 3.64453 v 0.125 0.125 h -3.64453 -3.64453 z"
     id="path10280" />
  <path
     style="fill:#ffffff;stroke-width:0.0220971"
     d="m 333.09149,128.12996 v -0.11049 h 4.20949 4.2095 v 0.11049 0.11048 h -4.2095 -4.20949 z"
     id="path10319" />
  <path
     style="fill:#ffffff;stroke-width:0.0078125"
     d="m 322.04687,128.12891 v -0.125 l 7.33008,0.002 c 4.03155,0.001 6.51621,0.004 5.52149,0.006 l -1.8086,0.004 -0.002,0.11522 -0.002,0.11522 1.81076,0.002 c 0.99591,0.001 -1.48778,0.003 -5.51933,0.004 l -7.33008,0.002 z"
     id="path10358" />
</svg>
